<?xml version="1.0" encoding="UTF-8"?>
<svg width="149px" height="130px" viewBox="0 0 149 130" version="1.1" xmlns="http://www.w3.org/2000/svg" xmlns:xlink="http://www.w3.org/1999/xlink">
    <!-- Generator: Sketch 40.3 (33839) - http://www.bohemiancoding.com/sketch -->
    <title>ericsson logo</title>
    <desc>Created with Sketch.</desc>
    <defs></defs>
    <g id="Main" stroke="none" stroke-width="1" fill="none" fill-rule="evenodd">
        <g transform="translate(-808.000000, -3635.000000)" id="ericsson-logo" fill="#9B9B9B">
            <g transform="translate(808.666667, 3635.000000)">
                <path d="M53.2050515,34.6564706 C48.6967059,36.3038655 43.7019191,33.9966387 42.0486765,29.5001681 C40.3954338,25.0036975 42.7104118,20.0254622 47.2187574,18.3769748 L95.2909779,0.802941176 C99.7982279,-0.845546218 104.793015,1.46277311 106.446257,5.95815126 C108.0995,10.452437 105.784522,15.4328571 101.276176,17.0813445 L53.2050515,34.6564706 L53.2050515,34.6564706 Z" id="Shape"></path>
                <path d="M53.2050515,60.6018487 C48.6967059,62.2492437 43.7019191,59.9409244 42.0486765,55.4444538 C40.3954338,50.9479832 42.7104118,45.9697479 47.2187574,44.3212605 L95.2909779,26.7472269 C99.7982279,25.0987395 104.793015,27.4070588 106.446257,31.902437 C108.0995,36.3967227 105.784522,41.3771429 101.276176,43.0256303 L53.2050515,60.6018487 L53.2050515,60.6018487 Z" id="Shape"></path>
                <path d="M53.2050515,86.5472269 C48.6967059,88.1946218 43.7019191,85.8863025 42.0486765,81.3898319 C40.3954338,76.8933613 42.7104118,71.9140336 47.2187574,70.2666387 L95.2909779,52.6915126 C99.7982279,51.0441176 104.793015,53.3513445 106.446257,57.8478151 C108.0995,62.3421008 105.784522,67.322521 101.276176,68.9721008 L53.2050515,86.5472269 L53.2050515,86.5472269 Z" id="Shape"></path>
                <polygon id="Shape" points="0.271705882 108.105378 16.3976691 108.105378 16.3976691 112.475126 5.96547794 112.475126 5.96547794 116.273529 15.9692941 116.273529 15.9692941 120.807143 5.96547794 120.807143 5.96547794 124.730084 16.5663897 124.730084 16.5663897 129.132605 0.271705882 129.132605"></polygon>
                <polygon id="Shape" points="41.4559632 108.105378 47.1935588 108.105378 47.1935588 129.144622 41.4559632 129.144622"></polygon>
                <path d="M68.1236765,108.780504 L67.7380294,113.283529 C63.1036912,110.609244 55.9988015,111.461345 55.8739044,118.475882 C55.7435294,125.483866 63.1891471,126.508571 67.9100368,124.127059 L68.2069412,128.722941 C59.8717059,131.312017 49.9139044,128.678151 49.9577279,118.475882 C49.9993603,108.481176 60.0393309,105.717311 68.1236765,108.780504 L68.1236765,108.780504 L68.1236765,108.780504 Z" id="Shape"></path>
                <path d="M85.0132647,108.454958 L84.6265221,112.836723 C81.7352647,111.248319 76.2463676,111.206807 76.2463676,113.699748 C76.2463676,117.392185 86.0321618,114.726639 86.0321618,122.632605 C86.0321618,130.409664 76.7174706,130.495966 70.6742059,128.692353 L71.1025809,124.054958 C74.8878382,125.813782 80.2496471,126.199412 80.2496471,123.149328 C80.2496471,119.799916 70.421125,121.686555 70.421125,114.169496 C70.4200294,108.003782 78.0781912,106.350924 85.0132647,108.454958 L85.0132647,108.454958 L85.0132647,108.454958 Z" id="Shape"></path>
                <path d="M102.323559,108.454958 L101.942294,112.836723 C99.04775,111.248319 93.5621397,111.206807 93.5621397,113.699748 C93.5621397,117.392185 103.347934,114.726639 103.347934,122.632605 C103.347934,130.409664 94.0288603,130.495966 87.9866912,128.692353 L88.4172574,124.054958 C92.2014191,125.813782 97.5610368,126.199412 97.5610368,123.149328 C97.5610368,119.799916 87.7358015,121.686555 87.7358015,114.169496 C87.7336103,108.003782 95.3895809,106.350924 102.323559,108.454958 L102.323559,108.454958 L102.323559,108.454958 Z" id="Shape"></path>
                <polygon id="Shape" points="128.742574 108.105378 136.011801 108.105378 142.949066 121.67563 142.949066 108.105378 148.223228 108.105378 148.223228 129.144622 141.375801 129.144622 134.059463 115.317647 134.059463 129.144622 128.742574 129.144622"></polygon>
                <path d="M115.513346,107.598487 C121.473346,107.602857 126.020037,111.081176 126.020037,118.670336 C126.020037,125.92521 121.450338,129.658067 115.513346,129.658067 C109.586213,129.660252 105.043904,126.011513 105.043904,118.670336 C105.043904,111.080084 109.56211,107.598487 115.513346,107.598487 L115.513346,107.598487 L115.513346,107.598487 Z M110.917353,118.669244 C110.917353,121.876639 112.296699,125.505714 115.51225,125.500252 C118.728897,125.495882 120.081949,121.876639 120.104956,118.669244 C120.127963,115.769916 118.727801,111.845882 115.51225,111.84042 C112.296699,111.839328 110.917353,115.465126 110.917353,118.669244 L110.917353,118.669244 L110.917353,118.669244 Z" id="Shape"></path>
                <path d="M26.0519926,116.970504 L29.1996176,116.970504 C30.6162132,116.993445 31.8936691,116.144622 31.8794265,114.593361 C31.8706618,113.219076 30.7400147,112.242437 29.2828824,112.263193 L26.0519926,112.263193 L26.0519926,116.970504 L26.0519926,116.970504 L26.0519926,116.970504 Z M20.5641912,108.105378 L30.9032574,108.105378 C33.71125,108.105378 37.6225,109.33437 37.6225,113.706303 C37.6225,116.501849 36.3505221,118.069496 33.9325588,118.794874 C34.0465,118.786134 35.313,119.336723 35.8366912,120.917479 C35.8575074,120.969916 38.7936838,129.12605 38.8276471,129.144622 L32.7317941,129.144622 L30.5625294,122.822689 C30.2294706,121.851513 29.5052868,121.20916 28.477625,121.20916 C27.5847206,121.20916 26.1801765,121.151261 26.1801765,121.20916 L26.1801765,129.144622 L20.5641912,129.144622 L20.5641912,108.105378 L20.5641912,108.105378 L20.5641912,108.105378 Z" id="Shape"></path>
            </g>
        </g>
    </g>
</svg>