<?xml version="1.0" encoding="utf-8"?>
<!-- Generator: Adobe Illustrator 15.0.0, SVG Export Plug-In . SVG Version: 6.00 Build 0)  -->
<!DOCTYPE svg PUBLIC "-//W3C//DTD SVG 1.1//EN" "http://www.w3.org/Graphics/SVG/1.1/DTD/svg11.dtd">
<svg version="1.1" id="Layer_1" xmlns="http://www.w3.org/2000/svg" xmlns:xlink="http://www.w3.org/1999/xlink" x="0px" y="0px"
	 width="173.539px" height="156.934px" viewBox="0 0 173.539 156.934" enable-background="new 0 0 173.539 156.934"
	 xml:space="preserve">
<g>
	<g>
		<path fill="#002661" d="M67.563,50.724c-4.115,1.508-8.674-0.604-10.183-4.72s0.604-8.673,4.719-10.182l43.878-16.087
			c4.114-1.509,8.673,0.604,10.182,4.719c1.509,4.114-0.604,8.673-4.719,10.182L67.563,50.724z"/>
		<path fill="#002661" d="M67.563,74.474c-4.115,1.508-8.674-0.605-10.183-4.721s0.604-8.673,4.719-10.182l43.878-16.087
			c4.114-1.509,8.673,0.604,10.182,4.719c1.509,4.114-0.604,8.673-4.719,10.182L67.563,74.474z"/>
		<path fill="#002661" d="M67.563,98.224c-4.115,1.508-8.674-0.605-10.183-4.721s0.604-8.674,4.719-10.182l43.878-16.088
			c4.114-1.508,8.673,0.604,10.182,4.72c1.509,4.114-0.604,8.673-4.719,10.183L67.563,98.224z"/>
	</g>
	<g>
		<g>
			<polygon fill="#002661" points="19.248,117.958 33.967,117.958 33.967,121.958 24.445,121.958 24.445,125.435 33.576,125.435 
				33.576,129.585 24.445,129.585 24.445,133.176 34.121,133.176 34.121,137.206 19.248,137.206 19.248,117.958 			"/>
		</g>
		<g>
			<polygon fill="#002661" points="56.839,117.958 62.076,117.958 62.076,137.217 56.839,137.217 56.839,117.958 			"/>
		</g>
		<g>
			<path fill="#002661" d="M81.18,118.576l-0.352,4.122c-4.23-2.448-10.715-1.668-10.829,4.753
				c-0.119,6.415,6.677,7.353,10.986,5.173l0.271,4.207c-7.608,2.37-16.697-0.041-16.657-9.38
				C64.637,118.302,73.801,115.772,81.18,118.576L81.18,118.576z"/>
		</g>
		<g>
			<path fill="#002661" d="M96.596,118.278l-0.353,4.011c-2.639-1.454-7.649-1.492-7.649,0.79c0,3.38,8.932,0.94,8.932,8.177
				c0,7.119-8.502,7.198-14.018,5.547l0.391-4.245c3.455,1.61,8.349,1.963,8.349-0.829c0-3.066-8.971-1.339-8.971-8.22
				C83.276,117.865,90.266,116.352,96.596,118.278L96.596,118.278z"/>
		</g>
		<g>
			<path fill="#002661" d="M112.396,118.278l-0.348,4.011c-2.642-1.454-7.649-1.492-7.649,0.79c0,3.38,8.932,0.94,8.932,8.177
				c0,7.119-8.506,7.198-14.021,5.547l0.393-4.245c3.454,1.61,8.346,1.963,8.346-0.829c0-3.066-8.968-1.339-8.968-8.22
				C99.079,117.865,106.067,116.352,112.396,118.278L112.396,118.278z"/>
		</g>
		<g>
			<polygon fill="#002661" points="136.51,117.958 143.145,117.958 149.477,130.38 149.477,117.958 154.291,117.958 
				154.291,137.217 148.041,137.217 141.363,124.56 141.363,137.217 136.51,137.217 136.51,117.958 			"/>
		</g>
		<g>
			<path fill="#002661" d="M124.435,117.494c5.44,0.004,9.59,3.188,9.59,10.135c0,6.641-4.171,10.058-9.59,10.058
				c-5.41,0.002-9.556-3.338-9.556-10.058C114.879,120.681,119.003,117.494,124.435,117.494L124.435,117.494z M120.24,127.628
				c0,2.936,1.259,6.258,4.194,6.253c2.936-0.004,4.171-3.317,4.192-6.253c0.021-2.654-1.257-6.246-4.192-6.251
				C121.499,121.376,120.24,124.695,120.24,127.628L120.24,127.628z"/>
		</g>
		<g>
			<path fill="#002661" d="M42.779,126.073h2.873c1.293,0.021,2.459-0.756,2.446-2.176c-0.008-1.258-1.04-2.152-2.37-2.133h-2.949
				V126.073L42.779,126.073z M37.77,117.958h9.437c2.563,0,6.133,1.125,6.133,5.127c0,2.559-1.161,3.994-3.368,4.658
				c0.104-0.008,1.26,0.496,1.738,1.943c0.019,0.048,2.699,7.514,2.73,7.531h-5.564l-1.98-5.787
				c-0.304-0.889-0.965-1.477-1.903-1.477c-0.815,0-2.097-0.053-2.097,0v7.264H37.77V117.958L37.77,117.958z"/>
		</g>
	</g>
</g>
</svg>
