<svg xmlns="http://www.w3.org/2000/svg" width="654" height="1325" viewBox="0 0 654 1325" xmlns:xlink="http://www.w3.org/1999/xlink">
  <defs>
    <rect id="a" width="644" height="1325" x="5" rx="97"/>
    <mask id="c" width="644" height="1325" x="0" y="0" fill="white">
      <use xlink:href="#a"/>
    </mask>
    <rect id="b" width="572" height="1010" x="41" y="158" rx="3"/>
    <mask id="d" width="572" height="1010" x="0" y="0" fill="white">
      <use xlink:href="#b"/>
    </mask>
  </defs>
  <g fill="none" fill-rule="evenodd">
    <use fill="#FFFFFF" stroke="#6A6A6A" stroke-width="12" mask="url(#c)" xlink:href="#a"/>
    <rect width="4" height="52" x="1" y="170" fill="#F1F1F1" rx="2"/>
    <rect width="5" height="98" y="403" fill="#F1F1F1" rx="2.5"/>
    <rect width="5" height="98" y="282" fill="#F1F1F1" rx="2.5"/>
    <rect width="5" height="98" x="649" y="282" fill="#F2F2F2" rx="2.5"/>
    <rect width="116" height="15" x="297" y="79" fill="#6A6A6A" rx="7.5"/>
    <circle cx="252" cy="86" r="11" fill="#6A6A6A"/>
    <path fill="#6A6A6A" d="M327,1281 C351.300529,1281 371,1261.30053 371,1237 C371,1212.69947 351.300529,1193 327,1193 C302.699471,1193 283,1212.69947 283,1237 C283,1261.30053 302.699471,1281 327,1281 Z M327,1288 C298.833478,1288 276,1265.16652 276,1237 C276,1208.83348 298.833478,1186 327,1186 C355.166522,1186 378,1208.83348 378,1237 C378,1265.16652 355.166522,1288 327,1288 Z"/>
    <use fill="#FFFFFF" stroke="#6A6A6A" stroke-width="6" mask="url(#d)" xlink:href="#b"/>
  </g>
</svg>
