<?xml version="1.0" encoding="UTF-8"?>
<svg width="145px" height="120px" viewBox="0 0 145 120" version="1.1" xmlns="http://www.w3.org/2000/svg" xmlns:xlink="http://www.w3.org/1999/xlink">
    <!-- Generator: Sketch 40.3 (33839) - http://www.bohemiancoding.com/sketch -->
    <title>NASA logo</title>
    <desc>Created with Sketch.</desc>
    <defs></defs>
    <g id="Main" stroke="none" stroke-width="1" fill="none" fill-rule="evenodd">
        <g transform="translate(-497.000000, -3635.000000)" id="NASA-logo">
            <g transform="translate(497.333333, 3635.000000)">
                <path d="M67.1141153,119.397321 C34.3720039,119.397321 7.42562842,92.4670983 7.42562842,59.7492955 C7.42562842,27.0279483 33.7418126,0.101269992 67.1141153,0.101269992 C99.2245168,0.101269992 126.802602,27.0294673 126.802602,59.7492955 C126.802602,92.4686173 99.8567329,119.397321 67.1141153,119.397321 Z" id="Shape" fill="#9B9B9B"></path>
                <path d="M80.578445,91.1429931 C106.079177,101.63659 101.653664,75.1185359 88.0607653,54.8139024 C80.3567391,43.310644 70.3091096,33.7269583 63.9717635,29.1014514 C42.9588042,13.7600602 29.9869856,23.0647471 44.8250818,53.32017 C49.6224832,63.1023449 55.7843375,69.7046421 60.5970761,75.9276831 C64.2724331,80.6786636 71.4313058,83.0575969 68.909528,85.3123733 C66.0676433,87.8546046 59.1863585,76.6416366 59.1863585,76.6416366 C54.1043334,70.5097385 49.2602117,63.967697 44.26778,54.9901122 C32.8610632,34.4834451 34.5056349,13.5539758 55.1521214,22.6708068 C72.6734662,30.4118851 89.409223,52.1231587 96.1378446,67.5415151 C99.2458269,74.6602892 107.719193,102.830057 80.7313107,91.4412333" id="Shape" fill="#FFFFFF"></path>
                <path d="M1.27860514,77.4310362 C12.4970239,69.9573107 23.1333381,65.1317956 41.2337503,59.1518025 C66.6686789,50.7463932 85.8123235,45.0965403 109.29948,33.2864338 C119.812793,28.0011529 138.055441,16.1480066 144.580073,5.84327856 C142.626227,9.83129086 136.577402,17.5936358 133.83898,21.0271949 C101.970025,60.9442814 34.0865197,58.6808971 1.7265725,77.8447241" id="Shape" fill="#4A4A4A"></path>
                <path d="M17.553234,48.2566704 C27.8205446,48.3372611 26.8132508,48.2360518 26.9332149,48.3563707 C27.1126904,48.3563707 35.1312706,62.1706104 35.1312706,62.2896026 C35.1312706,62.3486278 35.0713189,57.3804891 35.0713189,51.1671194 C35.0713189,50.4495202 33.0974786,48.3566239 33.1564989,48.3566239 C36.0870659,48.3566239 39.9175159,48.416596 39.9175159,48.416596 C38.4822993,50.0910447 38.1956002,49.9537226 38.1836544,50.9883474 C38.1431855,54.3158769 38.1053588,60.4651933 38.1836544,67.3728195 C38.1948106,68.4082039 38.9617003,68.8079672 40.2181855,70.6021677 L30.8225131,70.6021677 C27.7707164,65.5194267 22.1785147,55.9843506 22.2063544,56.0111872 C22.2492834,56.0548852 22.0858841,61.9921929 22.2647927,66.7746683 C22.3253113,68.3552903 23.0433954,68.8674127 24.3606219,70.3033199 C24.3606219,70.3033199 25.8756627,70.26266 16.9997842,70.3625325 C19.6924477,68.9273848 19.3348331,67.1337413 19.333517,67.0739414 C19.2366902,60.4650617 19.3134723,54.8147025 19.3134723,51.1669573 C19.3134723,50.5691606 19.2728111,50.6281503 17.418697,48.3564619" id="Shape" fill="#FFFFFF"></path>
                <path d="M49.6560428,58.4631666 C50.5182155,55.4693218 51.2546535,52.7935661 51.6041693,51.0491905 C51.6633617,50.7499022 50.9460369,49.6739946 49.8090603,48.5971908 L49.7284971,48.4301408 C55.2109089,48.4479239 60.9383108,48.477439 60.9383108,48.477439 C62.4342687,52.1252854 65.844996,62.3499089 68.4181002,68.6291548 C69.0985551,70.2888687 70.2731913,70.6021474 70.2731913,70.6021474 C65.6057257,70.5431222 56.9440111,70.583058 56.9900733,70.5431222 C59.3230468,68.4488588 59.0238451,68.4488588 58.0065795,65.4001256 L50.7069894,65.4001256 C49.2110315,68.8675089 51.173169,70.4955253 51.4243446,70.4828665 C49.7629172,70.5685663 44.1247544,70.4828665 44.1247544,70.4828665 C47.1765511,68.3294108 46.9963518,67.6723711 46.9963518,67.6723711 C47.8348859,64.6889571 48.8062411,61.4204681 49.6565186,58.4613589 L52.6514208,58.4618653 C52.0080182,60.5260515 51.3646662,62.5885162 51.3646662,62.5885162 L57.1705257,62.5885162 L53.9384791,54.3360245 C-0.961737832,-1.01269992 53.2950765,56.3992487 52.6515221,58.461764 L49.6566198,58.4612577" id="Shape" fill="#FFFFFF"></path>
                <path d="M99.8030781,58.7619131 C100.66358,55.7688278 101.40093,53.0923126 101.749686,51.3469242 C101.808691,51.0491499 101.090592,49.9732474 99.9543746,48.8956841 L99.8732444,48.7293937 C105.357175,48.7471767 111.086095,48.7766918 111.086095,48.7766918 C112.579775,52.4245382 115.991262,62.6496681 118.56386,68.9284076 C119.243555,70.588881 120.418192,70.9021598 120.418192,70.9021598 C115.753004,70.8416206 107.091036,70.8830704 107.13558,70.8416206 C109.470072,68.7496357 109.17087,68.7496357 108.153605,65.6996367 L100.852496,65.6996367 C99.3563863,69.1677289 101.317729,70.7950364 101.569041,70.7833903 C99.9089806,70.8683305 94.2699573,70.7833903 94.2699573,70.7833903 C97.3209947,68.6299346 97.1421115,67.9721353 97.1421115,67.9721353 C97.9806456,64.9881644 98.9521527,61.7207387 99.8031894,58.7621359 L102.797332,58.7621359 C102.152462,60.8261196 101.511894,62.8893438 101.511894,62.8893438 L107.314716,62.8893438 L104.082872,54.6368521 C-0.961737832,-1.01269992 103.441545,56.6993168 102.797434,58.761984 L99.8032907,58.761984" id="Shape" fill="#FFFFFF"></path>
                <path d="M90.362862,53.8604454 C90.2431459,49.6134858 90.362862,48.2384418 90.362862,48.2384418 C88.5070117,49.734149 89.4431875,49.5434069 84.7984493,48.7770463 C71.4125773,46.5675882 70.392629,59.0686092 77.6770338,61.8727753 C83.7916617,64.2271508 85.9586089,64.6883849 85.0363529,66.8950581 C84.7371664,67.6141256 79.1727892,70.2449175 73.4291896,64.9226224 L73.5473923,72.3376113 C74.2654561,71.5978846 76.2415743,70.2448669 76.2415743,70.2448669 C76.3005794,70.2448669 82.4675613,72.9628522 88.0284307,70.1243556 C96.586885,65.7598721 92.3154024,58.6950242 83.1822337,55.8928836 C75.5824802,53.5604331 82.7633311,48.1183862 90.3021308,53.9196884" id="Shape" fill="#FFFFFF"></path>
                <path d="M67.9543705,5.51820188 C67.9543705,5.78570657 67.7357523,6.00515864 67.4683335,6.00515864 C67.2024332,6.00515864 66.9822965,5.78570657 66.9822965,5.51820188 C66.9822965,5.25296565 67.2024332,5.03275405 67.4683335,5.03275405 C67.7357523,5.03275405 67.9543705,5.25296565 67.9543705,5.51820188" id="Shape" fill="#FFFFFF"></path>
                <path d="M71.3255147,12.881543 C71.3255147,13.2095869 71.0535605,13.4793398 70.7271619,13.4793398 C70.3984753,13.4793398 70.1280498,13.2095667 70.1280498,12.881543 C70.1280498,12.5542536 70.3984905,12.2844552 70.7271619,12.2844552 C71.0535808,12.2844552 71.3255147,12.5542334 71.3255147,12.881543" id="Shape" fill="#FFFFFF"></path>
                <path d="M80.0722672,24.9154562 C80.0722672,25.242933 79.802773,25.513253 79.4739144,25.513253 C79.1467362,25.513253 78.8755616,25.2429077 78.8755616,24.9154562 C78.8755616,24.5874123 79.1267118,24.3168999 79.4555908,24.3168999 C79.7842773,24.3168999 80.0723178,24.5874326 80.0723178,24.9154562" id="Shape" fill="#FFFFFF"></path>
                <path d="M66.0106477,17.0300683 C66.0106477,17.2968185 65.7920245,17.515511 65.5246107,17.515511 C65.2577639,17.515511 65.0376272,17.2968134 65.0376272,17.0300683 C65.0376272,16.7638852 65.2577639,16.5436786 65.5246107,16.5436786 C65.7920245,16.5436786 66.0106477,16.7638902 66.0106477,17.0300683" id="Shape" fill="#FFFFFF"></path>
                <path d="M71.249588,19.7962581 C71.249588,20.0614943 71.0300233,20.2817009 70.764123,20.2817009 C70.4974635,20.2817009 70.2773267,20.0614893 70.2773267,19.7962581 C70.2773267,19.5302674 70.4974635,19.3106229 70.764123,19.3106229 C71.0300233,19.3106229 71.249588,19.5302674 71.249588,19.7962581" id="Shape" fill="#FFFFFF"></path>
                <path d="M64.4414965,12.0587243 C64.4414965,12.3869556 64.1712431,12.6565211 63.8431437,12.6565211 C63.5152114,12.6565211 63.2447909,12.3869353 63.2447909,12.0587243 C63.2447909,11.7306805 63.5152316,11.4601681 63.8431437,11.4601681 C64.1712634,11.4601681 64.4414965,11.7307007 64.4414965,12.0587243" id="Shape" fill="#FFFFFF"></path>
                <path d="M56.5147521,16.880695 C56.5147521,17.1474453 56.2953746,17.3668973 56.0279609,17.3668973 C55.7613013,17.3668973 55.5419239,17.1474453 55.5419239,16.880695 C55.5419239,16.6145119 55.7613013,16.3943054 56.0279609,16.3943054 C56.2953746,16.3943054 56.5147521,16.614517 56.5147521,16.880695" id="Shape" fill="#FFFFFF"></path>
                <path d="M57.9320499,17.8513679 C57.9320499,18.119065 57.7126725,18.3385171 57.4452587,18.3385171 C57.1785992,18.3385171 56.9584675,18.119065 56.9584675,17.8513679 C56.9584675,17.5853772 57.1785992,17.3666796 57.4452587,17.3666796 C57.7126725,17.3666796 57.9320499,17.5853772 57.9320499,17.8513679" id="Shape" fill="#FFFFFF"></path>
                <path d="M59.3544096,18.8235598 C59.3544096,19.0910645 59.135027,19.3105166 58.8681802,19.3105166 C58.6015258,19.3105166 58.381389,19.0910645 58.381389,18.8235598 C58.381389,18.5583236 58.6015258,18.3388715 58.8681802,18.3388715 C59.135027,18.3388715 59.3544096,18.5583236 59.3544096,18.8235598" id="Shape" fill="#FFFFFF"></path>
                <path d="M57.1879686,20.6930039 C57.1879686,20.9597541 56.9670776,21.1792062 56.7011723,21.1792062 C56.4337586,21.1792062 56.2141938,20.9597541 56.2141938,20.6930039 C56.2141938,20.4270132 56.4337586,20.2075611 56.7011723,20.2075611 C56.9670776,20.2075611 57.1879686,20.4270132 57.1879686,20.6930039" id="Shape" fill="#FFFFFF"></path>
                <path d="M45.8921046,28.6158617 C45.8921046,28.882612 45.6719679,29.1013096 45.4053134,29.1013096 C45.1386539,29.1013096 44.9185222,28.882612 44.9185222,28.6158617 C44.9185222,28.3491115 45.138659,28.1294721 45.4053134,28.1294721 C45.671973,28.1294721 45.8921046,28.3491166 45.8921046,28.6158617" id="Shape" fill="#FFFFFF"></path>
                <path d="M47.985656,31.1582449 C47.985656,31.424428 47.7655193,31.6438801 47.4988648,31.6438801 C47.2322053,31.6438801 47.0120736,31.424428 47.0120736,31.1582449 C47.0120736,30.8907402 47.2322104,30.6720426 47.4988648,30.6720426 C47.7655244,30.6720426 47.985656,30.8907402 47.985656,31.1582449" id="Shape" fill="#FFFFFF"></path>
                <path d="M46.3213434,72.1953776 C46.3213434,72.4623151 46.1019659,72.6810127 45.8351191,72.6810127 C45.5684596,72.6810127 45.3490821,72.4623151 45.3490821,72.1953776 C45.3490821,71.9293869 45.5684596,71.7091753 45.8351191,71.7091753 C46.1019659,71.7091753 46.3213434,71.9293869 46.3213434,72.1953776" id="Shape" fill="#FFFFFF"></path>
                <path d="M46.6204945,83.5173627 C46.6204945,83.8454066 46.3500538,84.1144506 46.0221417,84.1144506 C45.6940221,84.1144506 45.4237889,83.8454319 45.4237889,83.5173627 C45.4237889,83.1891315 45.6940423,82.9195659 46.0221417,82.9195659 C46.3500741,82.9195659 46.6204945,83.1891517 46.6204945,83.5173627" id="Shape" fill="#FFFFFF"></path>
                <path d="M40.1864684,89.3150698 C40.1864684,89.580306 39.9670909,89.8005125 39.7011856,89.8005125 C39.4345261,89.8005125 39.2143944,89.580306 39.2143944,89.3150698 C39.2143944,89.0475651 39.4345311,88.8286801 39.7011856,88.8286801 C39.9670859,88.8286801 40.1864684,89.0475651 40.1864684,89.3150698" id="Shape" fill="#FFFFFF"></path>
                <path d="M32.4834545,91.6645336 C32.4834545,91.9925775 32.2115004,92.2616215 31.8843425,92.2616215 C31.5562228,92.2616215 31.2859897,91.9926028 31.2859897,91.6645336 C31.2859897,91.3357302 31.5562431,91.0659773 31.8843425,91.0659773 C32.2115206,91.0659773 32.4834545,91.3357504 32.4834545,91.6645336" id="Shape" fill="#FFFFFF"></path>
                <path d="M30.9122786,86.4339385 C30.9122786,86.7604735 30.6420252,87.0310264 30.3146851,87.0310264 C29.9867528,87.0310264 29.7163323,86.7604937 29.7163323,86.4339385 C29.7163323,86.1051401 29.986773,85.8353822 30.3146851,85.8353822 C30.6420505,85.8353822 30.9122786,86.1051604 30.9122786,86.4339385" id="Shape" fill="#FFFFFF"></path>
                <path d="M30.0158377,89.7606577 C30.0158377,90.027408 29.795701,90.2461056 29.5290465,90.2461056 C29.262387,90.2461056 29.042063,90.027408 29.042063,89.7606577 C29.042063,89.494667 29.262387,89.2744554 29.5290465,89.2744554 C29.7957061,89.2744554 30.0158377,89.494667 30.0158377,89.7606577" id="Shape" fill="#FFFFFF"></path>
                <path d="M24.2550281,86.9959869 C24.2550281,87.2619776 24.0356507,87.4821892 23.7697453,87.4821892 C23.5023316,87.4821892 23.2827618,87.2619776 23.2827618,86.9959869 C23.2827618,86.7299912 23.5023316,86.5103518 23.7697453,86.5103518 C24.0356456,86.5103518 24.2550281,86.7299912 24.2550281,86.9959869" id="Shape" fill="#FFFFFF"></path>
                <path d="M44.3755959,96.3381437 C44.3755959,96.6050813 44.1745623,96.8245334 43.9086621,96.8245334 C43.6420025,96.8245334 43.4033347,96.6050813 43.4033347,96.3381437 C43.4033347,96.072153 43.6234714,95.8519414 43.8893716,95.8519414 C44.1567854,95.8519414 44.3755959,96.072153 44.3755959,96.3381437" id="Shape" fill="#FFFFFF"></path>
                <path d="M50.4355566,91.8923911 C50.4355566,92.2211945 50.1844064,92.4909474 49.8555275,92.4909474 C49.5275951,92.4909474 49.2388004,92.2211742 49.2388004,91.8923911 C49.2388004,91.5656738 49.5090538,91.2953032 49.8371532,91.2953032 C50.1658448,91.2953032 50.4355566,91.5656485 50.4355566,91.8923911" id="Shape" fill="#FFFFFF"></path>
                <path d="M51.1290202,97.6090822 C51.1290202,97.8758324 50.8895981,98.0962313 50.624452,98.0962313 C50.3570383,98.0962313 50.1376609,97.8758324 50.1376609,97.6090822 C50.1376609,97.3430915 50.3570383,97.1243938 50.624452,97.1243938 C50.8895981,97.1243938 51.1290202,97.3430915 51.1290202,97.6090822" id="Shape" fill="#FFFFFF"></path>
                <path d="M76.0329683,92.1506296 C76.0329683,92.4168076 75.8135908,92.6370192 75.5476906,92.6370192 C75.2795176,92.6370192 75.0601401,92.4168076 75.0601401,92.1506296 C75.0601401,91.8838793 75.2795176,91.6651817 75.5476906,91.6651817 C75.8135908,91.6651817 76.0329683,91.8838793 76.0329683,92.1506296" id="Shape" fill="#FFFFFF"></path>
                <path d="M64.4414965,96.2621913 C64.4414965,96.5289364 64.2228733,96.747634 63.9554595,96.747634 C63.6895542,96.747634 63.4694225,96.5289364 63.4694225,96.2621913 C63.4694225,95.9961955 63.6895542,95.775989 63.9554595,95.775989 C64.2228733,95.775989 64.4414965,95.9961955 64.4414965,96.2621913" id="Shape" fill="#FFFFFF"></path>
                <path d="M95.6321729,102.171295 C95.6321729,102.437321 95.4120362,102.656814 95.1461359,102.656814 C94.8787222,102.656814 94.6585855,102.437321 94.6585855,102.171295 C94.6585855,101.904505 94.8787222,101.685032 95.1461359,101.685032 C95.4120362,101.685032 95.6321729,101.904505 95.6321729,102.171295" id="Shape" fill="#FFFFFF"></path>
                <path d="M98.1731855,79.183007 C98.1731855,79.5110509 97.9036914,79.7815633 97.5748327,79.7815633 C97.2461411,79.7815633 96.97648,79.5110307 96.97648,79.183007 C96.97648,78.8547707 97.2461614,78.5844507 97.5748327,78.5844507 C97.9037116,78.5844507 98.1731855,78.854791 98.1731855,79.183007" id="Shape" fill="#FFFFFF"></path>
                <path d="M93.3898053,82.4337738 C93.3898053,82.6999518 93.1704278,82.9201634 92.9022548,82.9201634 C92.6361672,82.9201634 92.4167847,82.6999518 92.4167847,82.4337738 C92.4167847,82.1670236 92.6361672,81.948326 92.9022548,81.948326 C93.1704278,81.948326 93.3898053,82.1670236 93.3898053,82.4337738" id="Shape" fill="#FFFFFF"></path>
                <path d="M98.1023206,83.3705212 C98.1023206,83.6985651 97.8326392,83.9690775 97.5039678,83.9690775 C97.175094,83.9690775 96.9056151,83.6985449 96.9056151,83.3705212 C96.9056151,83.0430444 97.1751142,82.7727245 97.5039678,82.7727245 C97.8326595,82.7727245 98.1023206,83.0430698 98.1023206,83.3705212" id="Shape" fill="#FFFFFF"></path>
                <path d="M93.3898053,89.1631648 C93.3898053,89.4291555 93.1704278,89.6486076 92.9022548,89.6486076 C92.6361672,89.6486076 92.4167847,89.4291555 92.4167847,89.1631648 C92.4167847,88.8964146 92.6361672,88.6767701 92.9022548,88.6767701 C93.1704278,88.6767701 93.3898053,88.8964146 93.3898053,89.1631648" id="Shape" fill="#FFFFFF"></path>
                <path d="M105.578567,75.9322403 C105.578567,76.1989905 105.358435,76.418635 105.092343,76.418635 C104.826442,76.418635 104.607065,76.1989905 104.607065,75.9322403 C104.607065,75.6654951 104.826442,75.4467975 105.092343,75.4467975 C105.358435,75.4467975 105.578567,75.6654951 105.578567,75.9322403" id="Shape" fill="#FFFFFF"></path>
                <path d="M106.757961,78.8842606 C106.757961,79.2130589 106.508324,79.4828169 106.179653,79.4828169 C105.850779,79.4828169 105.562723,79.2130387 105.562723,78.8842606 C105.562723,78.5560243 105.832405,78.2871727 106.159608,78.2871727 C106.4883,78.2871727 106.757961,78.5559989 106.757961,78.8842606" id="Shape" fill="#FFFFFF"></path>
                <path d="M115.155451,82.3983293 C115.155451,82.7263732 114.887283,82.9961261 114.557098,82.9961261 C114.228224,82.9961261 113.958745,82.7263529 113.958745,82.3983293 C113.958745,82.0710399 114.228245,81.799773 114.557098,81.799773 C114.887303,81.799773 115.155451,82.0710601 115.155451,82.3983293" id="Shape" fill="#FFFFFF"></path>
                <path d="M106.626355,88.6416243 C106.626355,88.9076201 106.404705,89.1272595 106.138617,89.1272595 C105.872712,89.1272595 105.65258,88.9076201 105.65258,88.6416243 C105.65258,88.3741196 105.872712,88.155422 106.138617,88.155422 C106.404705,88.155422 106.626355,88.3741196 106.626355,88.6416243" id="Shape" fill="#FFFFFF"></path>
                <path d="M112.012087,83.5578707 C112.012087,83.8246159 111.792709,84.0433135 111.526809,84.0433135 C111.260909,84.0433135 111.040772,83.8246159 111.040772,83.5578707 C111.040772,83.2911205 111.260909,83.0716684 111.526809,83.0716684 C111.792709,83.0716684 112.012087,83.2911205 112.012087,83.5578707" id="Shape" fill="#FFFFFF"></path>
                <path d="M111.019978,91.4062951 C111.019978,91.6732327 110.800601,91.8919303 110.534701,91.8919303 C110.266528,91.8919303 110.04715,91.6732327 110.04715,91.4062951 C110.04715,91.1403044 110.266528,90.9200928 110.534701,90.9200928 C110.800601,90.9200928 111.019978,91.1403044 111.019978,91.4062951" id="Shape" fill="#FFFFFF"></path>
                <path d="M113.30284,78.3627201 C113.30284,78.7728686 112.964319,79.1097888 112.554507,79.1097888 C112.144498,79.1097888 111.80673,78.7728534 111.80673,78.3627201 C111.80673,77.9525716 112.144498,77.6156514 112.554507,77.6156514 C112.964329,77.6156514 113.30284,77.9525868 113.30284,78.3627201" id="Shape" fill="#FFFFFF"></path>
                <polyline id="Shape" fill="#FFFFFF" points="112.553697 76.0841453 112.330538 78.1394198 110.291654 78.3639758 112.346837 78.5872154 112.572076 80.7183411 112.797508 78.5872154 114.816347 78.3263287 112.778982 78.1394198 112.553743 76.0841453"></polyline>
                <path d="M108.0639,91.3657871 C108.0639,91.7759407 107.72632,92.1128559 107.316326,92.1128559 C106.906317,92.1128559 106.567993,91.7759205 106.567993,91.3657871 C106.567993,90.9556386 106.906332,90.6187184 107.316326,90.6187184 C107.726335,90.6187184 108.0639,90.9556538 108.0639,91.3657871" id="Shape" fill="#FFFFFF"></path>
                <polyline id="Shape" fill="#FFFFFF" points="107.319818 89.0872123 107.094574 91.1424868 105.057006 91.3670479 107.112898 91.5917964 107.338324 93.7214537 107.563568 91.5917964 109.581851 91.3301553 107.542967 91.1424868 107.319808 89.0872123"></polyline>
                <path d="M52.2679203,29.6240045 C52.2679203,30.0341531 51.9303452,30.3710733 51.5203463,30.3710733 C51.1088187,30.3710733 50.772013,30.0341379 50.772013,29.6240045 C50.772013,29.213856 51.1088338,28.8769358 51.5203463,28.8769358 C51.9303554,28.8769358 52.2679203,29.2138712 52.2679203,29.6240045" id="Shape" fill="#FFFFFF"></path>
                <polyline id="Shape" fill="#FFFFFF" points="51.5187771 27.344417 51.2941 29.3995396 49.2552158 29.6242881 51.3126261 29.8475226 51.5372982 31.9786989 51.7610288 29.8475226 53.7808301 29.5873954 51.7419459 29.3995345 51.5187872 27.3444119"></polyline>
                <path d="M80.0925143,11.5361712 C80.0925143,11.9463197 79.75418,12.2839994 79.344181,12.2839994 C78.9341719,12.2839994 78.5981255,11.9463045 78.5981255,11.5361712 C78.5981255,11.1260226 78.9341922,10.7883429 79.344181,10.7883429 C79.7541901,10.7883429 80.0925143,11.1260378 80.0925143,11.5361712" id="Shape" fill="#FFFFFF"></path>
                <polyline id="Shape" fill="#FFFFFF" points="79.3433711 9.25455825 79.1202075 11.3104404 77.0813233 11.5351889 79.1387336 11.75975 79.3618922 13.8903187 79.5871362 11.75975 81.6061783 11.4973544 79.5672941 11.3104404 79.3433762 9.25455825"></polyline>
                <path d="M46.2646515,103.330837 C46.2646515,103.740985 45.9270714,104.077956 45.5170775,104.077956 C45.1055549,104.077956 44.767985,103.74098 44.767985,103.330837 C44.767985,102.921427 45.1055651,102.582958 45.5170775,102.582958 C45.9270866,102.582958 46.2646515,102.921407 46.2646515,103.330837" id="Shape" fill="#FFFFFF"></path>
                <polyline id="Shape" fill="#FFFFFF" points="45.5347431 101.047198 45.3110125 103.103081 43.2726851 103.327733 45.3295386 103.551651 45.5540234 105.68222 45.7779413 103.551651 47.7975401 103.29079 45.7594152 103.103081 45.5347431 101.047198"></polyline>
                <path d="M144.574505,5.84378491 C135.47849,32.8383141 99.0387496,53.683223 68.3643745,73.5832828 C49.8590201,85.5908658 31.4862843,99.4127007 18.8379132,111.174198 C15.5039225,114.275844 19.5172545,110.014707 18.2395605,111.324224 C35.8909929,90.992754 56.1958094,78.8828884 67.4162529,71.2608024 C86.3923526,58.3645752 97.185582,55.1143148 129.92415,24.9485158" id="Shape" fill="#4A4A4A"></path>
                <path d="M8.86570428,72.7219815 C5.59903519,74.320579 2.67261882,75.900239 0.189816677,77.4421252 L1.70055496,77.9920719 C3.87185528,76.654346 6.47882283,75.2591493 9.22488805,74.0294278" id="Shape" fill="#4A4A4A"></path>
                <path d="M26.1121945,102.93082 C23.1259985,105.537966 20.0395793,108.320916 16.9437959,111.237998 L16.8070621,113.299146 C19.6415566,110.378519 23.1236549,107.223959 27.1422005,103.876986" id="Shape" fill="#4A4A4A"></path>
                <path d="M80.578445,91.1429931 C106.079177,101.63659 101.653664,75.1185359 88.0607653,54.8139024 C80.3567391,43.310644 70.8557817,34.185205 63.9717635,29.1014514 C55.9336599,23.1644981 55.1490843,22.6723259 55.1490843,22.6723259 C73.0991617,31.1947021 89.4061859,52.1241714 96.1348075,67.5430341 C99.2427898,74.6618082 107.716156,102.831576 80.7282736,91.4427523" id="Shape" fill="#FFFFFF"></path>
            </g>
        </g>
    </g>
</svg>