<?xml version="1.0" encoding="UTF-8"?>
<svg width="136px" height="136px" viewBox="0 0 136 136" version="1.1" xmlns="http://www.w3.org/2000/svg" xmlns:xlink="http://www.w3.org/1999/xlink">
    <!-- Generator: Sketch 40.3 (33839) - http://www.bohemiancoding.com/sketch -->
    <title>sams-club</title>
    <desc>Created with Sketch.</desc>
    <defs></defs>
    <g id="Main" stroke="none" stroke-width="1" fill="none" fill-rule="evenodd">
        <g transform="translate(-678.000000, -3407.000000)" id="sams-club">
            <g transform="translate(678.000000, 3407.000000)">
                <polygon id="path2832" fill="#9B9B9B" transform="translate(68.479098, 67.622351) scale(1, -1) translate(-68.479098, -67.622351) " points="68.4821294 0.0675839938 0.918700177 67.6268965 68.4836449 135.177117 136.039497 67.6268965"></polygon>
                <polygon id="path2848" fill-opacity="0.723307292" fill="#4A4A4A" transform="translate(56.659060, 35.699272) scale(1, -1) translate(-56.659060, -35.699272) " points="68.4821294 50.6206913 64.1220741 54.9802854 44.83599 35.7007875 64.1220741 16.418259 68.4821294 20.7808837 53.5606471 35.7007875"></polygon>
                <polygon id="path2852" fill-opacity="0.723307292" fill="#4A4A4A" transform="translate(80.304563, 35.699272) scale(1, -1) translate(-80.304563, -35.699272) " points="92.1268745 35.7007875 72.8423059 54.9802854 68.4822506 50.6206913 83.4037329 35.7007875 68.4822506 20.7808837 72.8423059 16.418259"></polygon>
                <polygon id="path2856" fill="#757575" transform="translate(68.482129, 35.697757) scale(1, -1) translate(-68.482129, -35.697757) " points="68.4821294 50.6176607 53.5606471 35.6977569 68.4821294 20.7778531 83.4036117 35.6977569"></polygon>
                <g id="g2860" transform="translate(68.991086, 74.742410) scale(1, -1) translate(-68.991086, -74.742410) translate(23.491086, 50.742410)" fill="#FFFFFF">
                    <g id="g2866" transform="translate(39.822718, 13.878403)">
                        <path d="M7.57743363,21.2145697 L7.57743363,17.9354034 C10.5690044,19.9326036 12.9437721,20.9766635 14.9442146,20.9766635 C17.1765265,20.9766635 18.8435619,19.8841131 19.7952876,17.7459876 C22.9778097,19.9326036 25.5935398,20.9766635 27.5909513,20.9766635 C31.6327544,20.9766635 32.9163717,18.1248192 32.9163717,12.2286841 L32.9163717,9.80567718 C32.9163717,7.8554521 32.9163717,5.23999872 32.7739159,1.91234193 L35.2017257,1.62746056 L35.2017257,0.675835578 L26.3058186,0.675835578 L26.3058186,1.62746056 L29.0170243,1.9623477 C29.2564712,4.10047326 29.3049668,6.76138643 29.3049668,9.94660254 C29.3049668,16.0321534 29.0170243,18.7445877 25.3086283,18.7445877 C23.978031,18.7445877 22.2185509,18.1248192 20.0832301,16.7458721 C20.2681195,15.0820437 20.3150996,13.2272842 20.3150996,11.1831089 L20.3150996,3.52767988 L20.3150996,1.91234193 L22.838385,1.62746056 L22.838385,0.675835578 L13.9909735,0.675835578 L13.9909735,1.62746056 L16.558208,1.9623477 C16.7036947,4.1489637 16.7036947,6.80987688 16.7036947,9.94660254 C16.7036947,16.127619 16.3233075,18.7445877 12.6603761,18.7445877 C11.3282633,18.7445877 9.56878319,18.1248192 7.57743363,16.7928472 L7.57743363,6.47802039 C7.57743363,4.76570155 7.57743363,3.19582339 7.71534292,1.91234193 L10.5189934,1.62746056 L10.5189934,0.675835578 L0.962334071,0.675835578 L0.962334071,1.62746056 L3.76901549,1.91234193 C3.86449115,3.19582339 3.95845133,4.72024176 3.95845133,6.47802039 L3.95845133,15.1775093 C3.95845133,16.8413377 3.86449115,18.3157503 3.76901549,19.693182 L0.821393805,19.837138 L0.962334071,20.7857323 L7.57743363,21.2145697 L7.57743363,21.2145697 Z" id="path2868"></path>
                    </g>
                    <g id="g2870" transform="translate(74.261184, 33.197754)">
                        <polygon id="path2872" points="3.56084867 6.06130563 0.884499109 0.533394895 0.0358265423 0.533394895 0.599587604 6.06130563"></polygon>
                    </g>
                    <g id="g2874" transform="translate(0.131060, 13.174534)">
                        <path d="M1.51548673,10.6072849 C2.09440265,4.90208093 4.75862832,1.94870976 8.91409292,1.94870976 C12.8801217,1.94870976 15.6413385,4.61113826 15.6413385,8.33429524 C15.6413385,9.8814435 15.2018473,11.1391644 14.3334735,12.1559484 C12.6391593,14.1349647 9.83247788,14.8623214 6.74240044,16.3124888 C2.52631637,18.2975664 0.500110619,21.0524298 0.500110619,24.9695485 C0.500110619,30.1459036 4.27367257,33.8190548 9.54756637,33.8190548 C13.074104,33.8190548 15.1533518,32.1279505 16.1702434,32.1279505 C16.7521903,32.1279505 17.1371239,32.3203969 17.4750774,32.8053014 L18.5904757,32.8053014 C18.4434735,31.4975747 18.3449668,30.1459036 18.3449668,28.7396806 L18.3449668,25.0665294 L17.2356305,25.0665294 C16.8022013,29.9489111 14.2379978,32.6567994 10.4144248,32.6567994 C6.69087389,32.6567994 4.2236615,30.2883442 4.2236615,26.7106586 C4.2236615,23.2269232 6.54690265,22.0676985 10.7569248,20.2796133 C16.6051881,17.8141772 19.6543473,15.9260805 19.6543473,10.2208766 C19.6543473,4.51112672 15.5913274,0.644013723 9.44754425,0.644013723 C5.81795354,0.644013723 3.54926991,2.09569642 2.3399115,2.09569642 C1.7579646,2.09569642 1.41698009,1.90021932 1.12752212,1.46532064 L0.060619469,1.46532064 C0.210652655,2.82153777 0.25914823,4.27170514 0.25914823,5.72035719 L0.25914823,10.6072849 L1.51548673,10.6072849 L1.51548673,10.6072849 Z" id="path2876"></path>
                    </g>
                    <g id="g2878" transform="translate(0.007487, 13.462463)">
                        <path d="M0.529875215,24.6819229 C0.529875215,20.7390436 2.53031769,17.9599349 6.82369159,15.9400048 C7.63144601,15.5626886 8.41040619,15.2338627 9.16966504,14.9171595 C11.3004394,14.0246323 13.1463022,13.2548464 14.3814239,11.8061944 C15.2482823,10.7954717 15.6680721,9.56654197 15.6680721,8.04666959 C15.6680721,4.34169652 12.940196,1.75654967 9.03781769,1.75654967 C4.88841504,1.75654967 2.29390176,4.79932509 1.73468716,10.3302665 L1.72559424,10.4151248 L0.285881852,10.4151248 L0.285881852,5.43273153 C0.285881852,3.78254107 0.22223141,2.39601741 0.0903840644,1.18830226 L0.0797756574,1.08374474 L1.29974247,1.08374474 L1.32702123,1.12465856 C1.61344822,1.54743462 1.93170044,1.7126052 2.46363628,1.7126052 C2.88948805,1.7126052 3.46688849,1.52015875 4.20038406,1.27770652 C5.49006327,0.848869149 7.25408982,0.260922503 9.57126902,0.260922503 C15.733238,0.260922503 19.8720323,4.14773474 19.8720323,9.93325096 C19.8720323,15.8748458 16.4894659,17.7296053 10.9155057,20.0798766 C6.78277344,21.8361399 4.44437743,22.9953646 4.44437743,26.4230329 C4.44437743,29.9219216 6.89340398,32.2752235 10.5381496,32.2752235 C14.3890013,32.2752235 16.8425743,29.538544 17.2669106,24.7698118 L17.2714571,24.6819229 L18.5626518,24.6819229 L18.5626518,28.452055 C18.5626518,29.7006839 18.6429726,31.0281099 18.8066451,32.5055531 L18.8172535,32.611626 L17.5487911,32.611626 L17.5184814,32.5707122 C17.2047757,32.1176296 16.8486363,31.9342751 16.2939681,31.9342751 C15.9560146,31.9342751 15.4725743,32.1403595 14.8618332,32.4009956 C13.7176407,32.890446 11.9869549,33.62841 9.67129114,33.62841 C4.37466504,33.62841 0.529875215,29.8643392 0.529875215,24.6819229" id="path2880"></path>
                    </g>
                    <g id="g2882" transform="translate(76.628149, 13.795302)">
                        <path d="M0.436746568,15.6830832 C0.436746568,13.1221816 1.73551869,11.3159125 4.51643683,10.0006092 C4.51795232,10.0006092 6.01373772,9.34901885 6.01373772,9.34901885 C7.35342798,8.79289406 8.51277533,8.30798961 9.26900321,7.4124317 C9.79942356,6.80023984 10.0570563,6.05166859 10.0570563,5.12125818 C10.0570563,2.85432987 8.38092798,1.2723291 5.98494347,1.2723291 C3.39952312,1.2723291 1.84614922,3.10738938 1.49304082,6.58506349 L1.47485498,6.76841798 L0.288228869,6.76841798 L0.288228869,3.45894511 C0.288228869,2.40579325 0.245795241,1.53144992 0.162443471,0.782878671 L0.13516471,0.554064384 L1.1520563,0.554064384 L1.21419126,0.644983968 C1.36573993,0.873798256 1.52183506,0.955625882 1.81280852,0.955625882 C2.05831736,0.955625882 2.41445675,0.835915096 2.86607179,0.685897781 C3.69352754,0.408593049 4.83014259,0.0312767731 6.32592798,0.0312767731 C10.323782,0.0312767731 13.0092244,2.55732589 13.0092244,6.31685071 C13.0092244,10.1794177 10.8269236,11.3795562 7.23370453,12.8948826 C4.59221117,14.0162242 3.21463374,14.6996364 3.21463374,16.7907868 C3.21463374,18.9607343 4.67556294,20.3654418 6.93818462,20.3654418 C9.3038594,20.3654418 10.8087377,18.6743376 11.0663705,15.7270277 L11.0830408,15.5421579 L12.1787377,15.5421579 L12.1787377,18.0788143 C12.1787377,18.8652687 12.2272333,19.6759683 12.3318019,20.6366853 L12.3560497,20.8624689 L11.3149103,20.8624689 L11.2512598,20.7730646 C11.0845563,20.5290971 10.9011824,20.4336315 10.5920231,20.4336315 C10.4086492,20.4336315 10.1131293,20.5594036 9.74183506,20.7185129 C9.00227754,21.0352161 7.88536382,21.5079979 6.38806294,21.5079979 C2.93881515,21.5079979 0.436746568,19.0592305 0.436746568,15.6830832" id="path2884"></path>
                    </g>
                    <g id="g2886" transform="translate(21.580805, 14.249523)">
                        <path d="M1.51548673,15.5899644 C1.61853982,18.8342783 4.72528761,21.1299978 9.02775442,21.1299978 C13.5454204,21.1299978 15.3988606,18.7994258 15.3988606,13.9034062 L15.3988606,13.1427123 L15.1866925,6.10705178 C15.1866925,4.39473294 15.1866925,2.82485478 15.3291482,1.54137332 L18.1358296,1.25649195 L18.1358296,0.304866969 L11.7025885,0.304866969 L11.591958,2.44602318 C9.40814159,0.827654579 7.22129425,0.0669607228 5.03141593,0.0669607228 C2.08682522,0.0669607228 0.184889381,1.92020492 0.184889381,4.63112386 C0.184889381,8.43610847 3.98573009,10.6681843 11.6874336,11.6667844 L11.8344358,15.471769 L11.8344358,15.9945566 C11.8344358,18.8964067 10.6417478,20.1783728 8.02753319,20.1783728 C6.03466814,20.1783728 4.55706858,19.2752383 4.55706858,17.9447817 C4.55706858,17.4689692 4.71013274,16.1127521 4.71013274,15.5899644 C4.71013274,14.7080445 3.99482301,13.9928104 3.11129425,13.9928104 C2.23079646,13.9928104 1.51548673,14.7080445 1.51548673,15.5899644 L1.51548673,15.5899644 Z M11.5464934,4.58414874 C11.5464934,6.53588916 11.591958,8.62552427 11.6874336,10.9060905 C6.07710177,10.0984215 3.46137168,8.67401472 3.46137168,5.39333305 C3.46137168,3.25520748 4.84501106,1.82625468 7.02428097,1.82625468 C8.50188053,1.82625468 9.92795354,2.35055762 11.5464934,3.34915772 L11.5464934,4.58414874 L11.5464934,4.58414874 Z" id="path2888"></path>
                    </g>
                    <g id="g2890" transform="translate(21.718865, 1.247720)">
                        <path d="M7.57743363,0.436700366 C6.87879425,0.273045114 6.12711283,0.136665738 5.40271018,0.136665738 C2.3065708,0.136665738 0.156095133,1.683814 0.156095133,4.91297457 C0.156095133,8.18607961 2.15653761,10.0196246 5.40271018,10.0196246 C6.03012168,10.0196246 6.86818584,9.89839846 7.56530973,9.62412438 L7.42891593,8.00878643 C6.70299779,8.41792456 6.04527655,8.51490545 5.36027655,8.51490545 C3.38862832,8.51490545 2.15653761,7.008671 2.15653761,5.05086928 C2.15653761,3.1067055 3.35983407,1.64290019 5.40271018,1.64290019 C6.15590708,1.64290019 7.04549779,1.80807077 7.49559735,2.03991571 L7.57743363,0.436700366 L7.57743363,0.436700366 Z" id="path2892"></path>
                    </g>
                    <g id="g2894" transform="translate(35.361732, 1.482215)">
                        <polygon id="path2896" points="0 9.62177761 1.91860619 9.62177761 1.91860619 1.57236373 5.6285177 1.57236373 5.6285177 0.0661292805 0 0.0661292805"></polygon>
                    </g>
                    <g id="g2898" transform="translate(46.795624, 0.496707)">
                        <path d="M0,10.6072849 L1.91557522,10.6072849 L1.91557522,5.09149673 C1.91557522,3.46100551 2.43387168,2.3927004 3.90086283,2.3927004 C5.3663385,2.3927004 5.88918142,3.46100551 5.88918142,5.09149673 L5.88918142,10.6072849 L7.80324115,10.6072849 L7.80324115,4.50203476 C7.80324115,1.94113313 6.35443584,0.887981275 3.90086283,0.887981275 C1.4503208,0.887981275 0,1.94113313 0,4.50203476 L0,10.6072849 L0,10.6072849 Z" id="path2900"></path>
                    </g>
                    <g id="g2902" transform="translate(61.369622, 1.539858)">
                        <path d="M1.95223329,1.51532641 L2.8539479,1.51532641 C3.74202312,1.51532641 4.82559613,1.73504874 4.82559613,2.84275234 C4.82559613,4.08683532 3.81325099,4.27928178 2.8539479,4.27928178 L1.95223329,4.27928178 L1.95223329,1.51532641 L1.95223329,1.51532641 Z M1.95223329,5.7036886 L2.73270896,5.7036886 C3.54046338,5.7036886 4.53916913,5.88098179 4.53916913,6.86745928 C4.53916913,7.97516288 3.56774214,8.05699051 2.69179082,8.05699051 L1.95223329,8.05699051 L1.95223329,5.7036886 L1.95223329,5.7036886 Z M0.0351425859,9.56474028 L3.37527533,9.56474028 C4.60736604,9.56474028 6.45625984,9.21015391 6.45625984,7.11294216 C6.45625984,5.97644735 5.68790807,5.18241631 4.554324,4.97936258 L4.554324,4.94905605 C5.8561271,4.82782993 6.74571781,3.95197127 6.74571781,2.77304733 C6.74571781,0.363678338 4.58160276,0.00909195845 3.37527533,0.00909195845 L0.0351425859,0.00909195845 L0.0351425859,9.56474028 L0.0351425859,9.56474028 Z" id="path2904"></path>
                    </g>
                </g>
            </g>
        </g>
    </g>
</svg>