<?xml version="1.0" encoding="UTF-8"?>
<svg width="272px" height="136px" viewBox="0 0 272 136" version="1.1" xmlns="http://www.w3.org/2000/svg" xmlns:xlink="http://www.w3.org/1999/xlink">
    <!-- Generator: Sketch 40.3 (33839) - http://www.bohemiancoding.com/sketch -->
    <title>sap</title>
    <desc>Created with Sketch.</desc>
    <defs>
        <polyline id="path-1" points="0.0490618518 0.675627537 271.346384 0.675627537 271.346384 135.783853 0.0490618518 135.783853"></polyline>
    </defs>
    <g id="Work-experience" stroke="none" stroke-width="1" fill="none" fill-rule="evenodd">
        <g id="SAP---Work" transform="translate(-584.000000, -209.000000)">
            <g id="sap" transform="translate(584.000000, 209.000000)">
                <g id="Group-3">
                    <mask id="mask-2" fill="white">
                        <use xlink:href="#path-1"></use>
                    </mask>
                    <g id="Clip-2"></g>
                    <polyline id="Fill-1" fill="#000000" mask="url(#mask-2)" points="0 135.761634 137.127058 135.761634 271.346384 0.675627537 0 0.675627537 0 135.761634"></polyline>
                </g>
                <path d="M162.602425,65.316971 L156.713367,65.316971 L156.713367,43.6499827 L162.602425,43.6499827 C170.450685,43.6499827 176.696259,46.2701996 176.696259,54.3588026 C176.696259,62.6951083 170.450685,65.316971 162.602425,65.316971 L162.602425,65.316971 Z M99.3028234,80.7675277 C96.1914843,80.7675277 93.2633095,80.2112253 90.742348,79.2467485 L99.2136944,52.3714207 L99.3870463,52.3714207 L107.682588,79.3241041 C105.191063,80.2334445 102.342205,80.7675277 99.3028234,80.7675277 L99.3028234,80.7675277 Z M161.03081,26.0704998 L134.322356,26.0639164 L134.322356,89.9695582 L110.986903,26.0639164 L87.8534226,26.0639164 L67.9269515,79.5026805 C65.8172919,66.035391 51.964678,61.3718329 41.0631346,57.8834223 C33.8551308,55.5619298 26.239096,52.1360621 26.3069649,48.3555104 C26.3560268,45.2563468 30.4060826,42.3727915 38.3941698,42.8089457 C43.7648072,43.1002638 48.5115413,43.5298346 57.9297815,48.1119224 L67.2286378,31.8450168 C58.6109235,27.433276 46.7158776,24.655879 36.9713761,24.6394203 L36.9059603,24.6394203 C25.5407823,24.6394203 16.0628503,28.3557832 10.1950528,34.4586502 C6.10574745,38.7272008 3.89878182,44.1346899 3.80065812,50.1355133 C3.65510796,58.3887028 6.66014638,64.2339919 12.9809483,68.9082482 C18.3025238,72.8361048 25.1237566,75.39131 31.1346511,77.2750024 C38.5462616,79.5783903 44.5988587,81.5863454 44.5244482,85.8713547 C44.492558,87.4349263 43.8948211,88.8841104 42.778664,90.0625496 C40.9249437,91.9873886 38.090804,92.7107462 34.1699444,92.786456 C26.5939768,92.9386985 20.9853894,91.7470923 12.0520439,86.4342405 L3.80065812,102.921692 C12.7209205,108.027165 23.2765779,111.016878 34.0342066,111.016878 L35.4218393,111.005357 C44.8000123,110.838302 52.3612613,108.137438 58.4154938,103.245104 C58.747479,102.976828 59.0696519,102.683042 59.3877362,102.398307 L56.7163184,109.606372 L80.9700448,109.606372 L85.0454493,97.1422374 C89.3081065,98.5889527 94.1545998,99.4102392 99.3028234,99.4102392 C104.30795,99.4102392 109.042419,98.6383286 113.22903,97.256625 L117.150707,109.606372 L156.713367,109.606372 L156.713367,83.7926273 L165.342529,83.7926273 C186.201993,83.7926273 198.551679,73.1060266 198.551679,55.1842038 C198.551679,35.2272691 186.559327,26.0704998 161.03081,26.0704998 L161.03081,26.0704998 Z" id="Fill-4" fill="#FFFFFF"></path>
                <path d="M175.19006,126.390079 L175.19006,123.270343 L177.270283,123.270343 C178.309576,123.270343 179.432275,123.493357 179.432275,124.749975 C179.432275,126.309432 178.288316,126.390079 177.015161,126.390079 L175.19006,126.390079 L175.19006,126.390079 Z M175.19006,127.691959 L176.939933,127.691959 L179.582731,132.065844 L181.294172,132.065844 L178.429778,127.620363 C179.902451,127.445902 181.034962,126.652595 181.034962,124.842966 C181.034962,122.853116 179.864837,121.970109 177.496785,121.970109 L173.674049,121.970109 L173.674049,132.065844 L175.19006,132.065844 L175.19006,127.691959 L175.19006,127.691959 Z M177.037239,135.783853 C181.771708,135.783853 185.828305,132.065844 185.828305,127.001518 C185.828305,121.970109 181.771708,118.261976 177.037239,118.261976 C172.243896,118.261976 168.197111,121.970109 168.197111,127.001518 C168.197111,132.065844 172.243896,135.783853 177.037239,135.783853 L177.037239,135.783853 Z M169.946984,127.001518 C169.946984,122.853116 173.056688,119.712806 177.037239,119.712806 C180.96464,119.712806 184.07925,122.853116 184.07925,127.001518 C184.07925,131.21987 180.96464,134.320679 177.037239,134.320679 C173.056688,134.320679 169.946984,131.21987 169.946984,127.001518 L169.946984,127.001518 Z" id="Fill-5" fill="#105C9B"></path>
            </g>
        </g>
    </g>
</svg>