<?xml version="1.0" encoding="UTF-8"?>
<svg width="176px" height="89px" viewBox="0 0 176 89" version="1.1" xmlns="http://www.w3.org/2000/svg" xmlns:xlink="http://www.w3.org/1999/xlink">
    <!-- Generator: Sketch 40.3 (33839) - http://www.bohemiancoding.com/sketch -->
    <title>sap logo</title>
    <desc>Created with Sketch.</desc>
    <defs>
        <polyline id="path-1" points="0.0317777842 0.438044733 175.753391 0.438044733 175.753391 88.0357867 0.0317777842 88.0357867"></polyline>
    </defs>
    <g id="Main" stroke="none" stroke-width="1" fill="none" fill-rule="evenodd">
        <g transform="translate(-155.000000, -3650.000000)" id="sap-logo">
            <g transform="translate(155.000000, 3650.000000)">
                <mask id="mask-2" fill="white">
                    <use xlink:href="#path-1"></use>
                </mask>
                <g id="Clip-2"></g>
                <polyline id="Fill-1" fill="#9B9B9B" mask="url(#mask-2)" points="0 88.0213808 88.8183773 88.0213808 175.753391 0.438044733 0 0.438044733 0 88.0213808"></polyline>
                <path d="M105.318992,42.3484147 L101.504598,42.3484147 L101.504598,28.3005709 L105.318992,28.3005709 C110.402378,28.3005709 114.44769,29.9993948 114.44769,35.2436599 C114.44769,40.6485237 110.402378,42.3484147 105.318992,42.3484147 L105.318992,42.3484147 Z M64.3192945,52.3658201 C62.3040534,52.3658201 60.4074493,52.0051402 58.7746008,51.3798193 L64.2615649,33.9551361 L64.3738464,33.9551361 L69.7469401,51.429973 C68.1331583,52.019546 66.2879283,52.3658201 64.3192945,52.3658201 L64.3192945,52.3658201 Z M104.301043,16.902871 L87.0017473,16.8986026 L87.0017473,58.3319787 L71.8871739,16.8986026 L56.903419,16.8986026 L43.9968719,51.5457534 C42.6304272,42.814204 33.6579698,39.7905749 26.5969461,37.5288555 C21.92826,36.0237104 16.9952886,33.8025408 17.0392479,31.3514111 C17.0710257,29.3420609 19.6942818,27.4725009 24.8682347,27.7552826 C28.3468428,27.9441593 31.4213434,28.2226726 37.5216187,31.1934802 L43.5445681,20.646793 C37.9628003,17.7864302 30.2582765,15.9856982 23.9466789,15.9750272 L23.9043086,15.9750272 C16.5429848,15.9750272 10.4040466,18.38454 6.60342356,22.3413485 C3.95474525,25.1088735 2.52527459,28.614832 2.46171902,32.5054802 C2.36744493,37.8564554 4.31383421,41.6462626 8.40787208,44.6768279 C11.8547024,47.2234631 16.2728737,48.8801365 20.1661819,50.101433 C24.9667458,51.59484 28.8870651,52.8967026 28.8388688,55.6748986 C28.8182133,56.688644 28.4310539,57.628226 27.7081093,58.3922699 C26.5074387,59.6402438 24.671742,60.1092345 22.1321675,60.1583211 C17.2251479,60.2570279 13.5924176,59.4844472 7.8062127,56.0398469 L2.46171902,66.7295257 C8.23944982,70.0396712 15.0764401,71.9780592 22.0442489,71.9780592 L22.9430306,71.9705895 C29.017354,71.8622788 33.9148402,70.111167 37.8362188,66.9392109 C38.0512485,66.7652735 38.2599226,66.5747961 38.4659486,66.3901877 L36.7356482,71.0635541 L52.4449958,71.0635541 L55.0846705,62.9824024 C57.8456303,63.9203837 60.9847457,64.4528669 64.3192945,64.4528669 C67.5611582,64.4528669 70.6277143,63.9523967 73.3394186,63.0565659 L75.8795228,71.0635541 L101.504598,71.0635541 L101.504598,54.3271507 L107.093781,54.3271507 C120.604636,54.3271507 128.603634,47.3984675 128.603634,35.7788108 C128.603634,22.8396844 120.836084,16.902871 104.301043,16.902871 L104.301043,16.902871 Z" id="Fill-4" fill="#FFFFFF" mask="url(#mask-2)"></path>
                <path d="M113.472112,81.9453109 L113.472112,79.922622 L114.81949,79.922622 C115.492649,79.922622 116.219831,80.0672141 116.219831,80.8819453 C116.219831,81.893023 115.478879,81.9453109 114.654246,81.9453109 L113.472112,81.9453109 L113.472112,81.9453109 Z M113.472112,82.7893873 L114.60552,82.7893873 L116.317283,85.6252068 L117.425798,85.6252068 L115.570505,82.7429685 C116.524368,82.6298558 117.257905,82.1155134 117.257905,80.9422365 C117.257905,79.652112 116.500005,79.0796126 114.966197,79.0796126 L112.490178,79.0796126 L112.490178,85.6252068 L113.472112,85.6252068 L113.472112,82.7893873 L113.472112,82.7893873 Z M114.668546,88.0357867 C117.735102,88.0357867 120.362595,85.6252068 120.362595,82.3417387 C120.362595,79.0796126 117.735102,76.6754353 114.668546,76.6754353 C111.563856,76.6754353 108.942718,79.0796126 108.942718,82.3417387 C108.942718,85.6252068 111.563856,88.0357867 114.668546,88.0357867 L114.668546,88.0357867 Z M110.076126,82.3417387 C110.076126,79.652112 112.090308,77.6160844 114.668546,77.6160844 C117.212357,77.6160844 119.229717,79.652112 119.229717,82.3417387 C119.229717,85.0767171 117.212357,87.0871344 114.668546,87.0871344 C112.090308,87.0871344 110.076126,85.0767171 110.076126,82.3417387 L110.076126,82.3417387 Z" id="Fill-5" fill="#4A4A4A" mask="url(#mask-2)"></path>
            </g>
        </g>
    </g>
</svg>