<svg xmlns="http://www.w3.org/2000/svg" width="820" height="222" viewBox="0 0 820 222" xmlns:xlink="http://www.w3.org/1999/xlink" style="background:#fff">
  <defs>
    <linearGradient id="a" x1="15.16%" x2="102%" y1="-12.534%" y2="101%">
      <stop stop-color="#5144C8" offset="0%"/>
      <stop stop-color="#C96DD8" offset="100%"/>
    </linearGradient>
    <rect id="c" width="152" height="155" x="445" y="33" rx="30"/>
    <filter id="b" width="200%" height="200%" x="-50%" y="-50%" filterUnits="objectBoundingBox">
      <feOffset dy="2" in="SourceAlpha" result="shadowOffsetOuter1"/>
      <feGaussianBlur stdDeviation="15" in="shadowOffsetOuter1" result="shadowBlurOuter1"/>
      <feColorMatrix values="0 0 0 0 0.683487457 0 0 0 0 0.683487457 0 0 0 0 0.683487457 0 0 0 0.5 0" in="shadowBlurOuter1"/>
    </filter>
  </defs>
  <g fill="none" fill-rule="evenodd">
    <g transform="translate(65 33)">
      <text fill="#4A4A4A" font-family="Audiowide-Regular, Audiowide" font-size="36" font-style="expanded">
        <tspan x="0" y="146">TicketPass</tspan>
      </text>
      <path fill="url(#a)" d="M88.8690225,0 C86.6178724,0 84.917608,1.30833763 84.917608,3.04296203 L84.917608,26.8084502 C84.917608,27.0533383 84.9606814,27.2868891 85.0241579,27.5136374 L85.0241579,79.6067892 C81.963682,76.3983009 76.8175484,74.2827394 70.9845079,74.2827394 C61.6217186,74.2827394 54,79.7315008 54,86.4296452 C54,93.1300571 61.6217186,98.5833535 70.9845079,98.5833535 C79.9165636,98.5833535 87.2390357,93.6198335 87.9010053,87.3502433 C88.222922,87.0395981 88.4246867,86.6087764 88.4246867,86.1303375 L88.4246867,62.2832988 L88.4246867,29.8196675 C88.572043,29.8287374 88.7171322,29.8514122 88.8690225,29.8514122 L146.315289,29.8514122 C146.505719,29.8514122 146.68708,29.8287374 146.868442,29.812865 L146.868442,67.0698763 C143.796631,63.9248776 138.704906,61.8569332 132.94441,61.8569332 C123.581621,61.8569332 115.962169,67.307962 115.962169,74.008374 C115.962169,80.7087859 123.581621,86.1598148 132.94441,86.1598148 C140.951522,86.1598148 147.666433,82.1690449 149.450577,76.8268552 C149.933452,76.52528 150.268971,76.0173638 150.268971,75.4074109 L150.268971,3.04296203 C150.268971,1.30833763 148.570973,0 146.315289,0 L88.8690225,0 Z M72.2829534,92.4366506 C72.2829534,92.4366506 61.914989,91.1732194 61.914989,86.4296452 C61.914989,81.690606 64.9196753,79.5587709 72.2829537,79.5587709 C79.6462321,79.5587709 82.6515165,81.690606 82.6515165,86.4296452 C82.6515165,91.1732194 72.2829534,92.4366506 72.2829534,92.4366506 Z M135.864784,81.5409972 C128.503772,81.5409972 125.201178,79.3520609 125.201178,74.6084867 C125.201178,69.8649125 127.543698,66.5027811 134.904709,66.5027811 C142.270255,66.5027811 146.528389,69.2647998 146.528389,74.008374 C146.528389,78.7519482 135.864784,81.5409972 135.864784,81.5409972 Z M146.315289,26.4501879 L88.4246867,26.3844309 L100.035978,8.05638099 L119.123141,18.2951659 L131.59911,9.22957508 L146.868442,26.3685585 C146.868442,26.3685585 146.555593,26.4501879 146.315289,26.4501879 Z"/>
    </g>
    <use fill="black" filter="url(#b)" xlink:href="#c"/>
    <use fill="#FFFFFF" xlink:href="#c"/>
    <path fill="url(#a)" d="M499.869022,61.2083233 C497.617872,61.2083233 495.917608,62.5166609 495.917608,64.2512853 L495.917608,88.0167734 C495.917608,88.2616616 495.960681,88.4952123 496.024158,88.7219606 L496.024158,140.815112 C492.963682,137.606624 487.817548,135.491063 481.984508,135.491063 C472.621719,135.491063 465,140.939824 465,147.637968 C465,154.33838 472.621719,159.791677 481.984508,159.791677 C490.916564,159.791677 498.239036,154.828157 498.901005,148.558567 C499.222922,148.247921 499.424687,147.8171 499.424687,147.338661 L499.424687,123.491622 L499.424687,91.0279907 C499.572043,91.0370606 499.717132,91.0597355 499.869022,91.0597355 L557.315289,91.0597355 C557.505719,91.0597355 557.68708,91.0370606 557.868442,91.0211883 L557.868442,128.2782 C554.796631,125.133201 549.704906,123.065256 543.94441,123.065256 C534.581621,123.065256 526.962169,128.516285 526.962169,135.216697 C526.962169,141.917109 534.581621,147.368138 543.94441,147.368138 C551.951522,147.368138 558.666433,143.377368 560.450577,138.035178 C560.933452,137.733603 561.268971,137.225687 561.268971,136.615734 L561.268971,64.2512853 C561.268971,62.5166609 559.570973,61.2083233 557.315289,61.2083233 L499.869022,61.2083233 Z M483.282953,153.644974 C483.282953,153.644974 472.914989,152.381543 472.914989,147.637968 C472.914989,142.898929 475.919675,140.767094 483.282954,140.767094 C490.646232,140.767094 493.651516,142.898929 493.651516,147.637968 C493.651516,152.381543 483.282953,153.644974 483.282953,153.644974 Z M546.864784,142.749321 C539.503772,142.749321 536.201178,140.560384 536.201178,135.81681 C536.201178,131.073236 538.543698,127.711104 545.904709,127.711104 C553.270255,127.711104 557.528389,130.473123 557.528389,135.216697 C557.528389,139.960271 546.864784,142.749321 546.864784,142.749321 Z M557.315289,87.6585111 L499.424687,87.5927541 L511.035978,69.2647042 L530.123141,79.5034891 L542.59911,70.4378983 L557.868442,87.5768818 C557.868442,87.5768818 557.555593,87.6585111 557.315289,87.6585111 Z"/>
  </g>
</svg>
