<?xml version="1.0" encoding="UTF-8"?>
<svg width="70px" height="72px" viewBox="0 0 70 72" version="1.1" xmlns="http://www.w3.org/2000/svg" xmlns:xlink="http://www.w3.org/1999/xlink">
    <!-- Generator: Sketch 40.2 (33826) - http://www.bohemiancoding.com/sketch -->
    <title>Fill 127 Copy 2</title>
    <desc>Created with Sketch.</desc>
    <defs>
        <linearGradient x1="15.1601464%" y1="-12.5339131%" x2="101.999998%" y2="100.999999%" id="linearGradient-1">
            <stop stop-color="#5144C8" offset="0%"></stop>
            <stop stop-color="#C96DD8" offset="100%"></stop>
        </linearGradient>
    </defs>
    <g id="Design" stroke="none" stroke-width="1" fill="none" fill-rule="evenodd">
        <path d="M25.3542918,0 C23.7174143,0 22.4811021,0.949630921 22.4811021,2.20867365 L22.4811021,19.4583819 C22.4811021,19.6361291 22.512422,19.8056473 22.5585777,19.9702281 L22.5585777,57.7810093 C20.3332156,55.4521917 16.5913105,53.9166533 12.3499352,53.9166533 C5.54197574,53.9166533 0,57.8715287 0,62.733244 C0,67.5966052 5.54197574,71.5547722 12.3499352,71.5547722 C18.8446956,71.5547722 24.1690804,67.9520996 24.650418,63.4014419 C24.8844931,63.1759663 25.0312022,62.8632628 25.0312022,62.5159975 L25.0312022,45.2070973 L25.0312022,21.6440143 C25.1383492,21.6505975 25.2438479,21.6670556 25.3542918,21.6670556 L67.1251619,21.6670556 C67.2636289,21.6670556 67.3955022,21.6505975 67.5273755,21.6390769 L67.5273755,48.6813397 C65.2937713,46.3986047 61.5914282,44.8976283 57.4028023,44.8976283 C50.5948428,44.8976283 45.0545155,48.8541495 45.0545155,53.7175106 C45.0545155,58.5808718 50.5948428,62.537393 57.4028023,62.537393 C63.2250088,62.537393 68.107618,59.6407718 69.4049217,55.7632493 C69.7560344,55.5443569 70,55.1756961 70,54.7329738 L70,2.20867365 C70,0.949630921 68.7653362,0 67.1251619,0 L25.3542918,0 Z M13.2940731,67.0933098 C13.2940731,67.0933098 5.75522128,66.1762733 5.75522128,62.733244 C5.75522128,59.2935064 7.94001705,57.7461562 13.2940733,57.7461562 C18.6481296,57.7461562 20.8333603,59.2935064 20.8333603,62.733244 C20.8333603,66.1762733 13.2940731,67.0933098 13.2940731,67.0933098 Z M59.5262918,59.1849159 C54.173884,59.1849159 51.7724708,57.5961198 51.7724708,54.1530905 C51.7724708,50.7100613 53.4757857,48.2697249 58.8281935,48.2697249 C64.1838982,48.2697249 67.280113,50.2744814 67.280113,53.7175106 C67.280113,57.1605399 59.5262918,59.1849159 59.5262918,59.1849159 Z M67.1251619,19.1983444 L25.0312022,19.1506159 L33.4741135,5.84756438 L47.3529514,13.2791834 L56.4245952,6.69910404 L67.5273755,19.1390953 C67.5273755,19.1390953 67.299894,19.1983444 67.1251619,19.1983444 Z" id="Fill-127-Copy-2" fill="url(#linearGradient-1)"></path>
    </g>
</svg>