<svg xmlns="http://www.w3.org/2000/svg" width="1228" height="927" viewBox="0 0 1228 927" xmlns:xlink="http://www.w3.org/1999/xlink">
  <defs>
    <filter id="c" width="200%" height="200%" x="-50%" y="-50%" filterUnits="objectBoundingBox">
      <feOffset dy="2" in="SourceAlpha" result="shadowOffsetOuter1"/>
      <feGaussianBlur stdDeviation="5" in="shadowOffsetOuter1" result="shadowBlurOuter1"/>
      <feColorMatrix values="0 0 0 0 0.270115859 0 0 0 0 0.270115859 0 0 0 0 0.270115859 0 0 0 0.359346694 0" in="shadowBlurOuter1" result="shadowMatrixOuter1"/>
      <feMerge>
        <feMergeNode in="shadowMatrixOuter1"/>
        <feMergeNode in="SourceGraphic"/>
      </feMerge>
    </filter>
    <rect id="a" width="47.802" height="17.694" rx="8.847"/>
    <mask id="d" width="47.802" height="17.694" x="0" y="0" fill="white">
      <use xlink:href="#a"/>
    </mask>
    <filter id="e" width="200%" height="200%" x="-50%" y="-50%" filterUnits="objectBoundingBox">
      <feOffset dy="2" in="SourceAlpha" result="shadowOffsetOuter1"/>
      <feGaussianBlur stdDeviation="5" in="shadowOffsetOuter1" result="shadowBlurOuter1"/>
      <feColorMatrix values="0 0 0 0 0.270115859 0 0 0 0 0.270115859 0 0 0 0 0.270115859 0 0 0 0.359346694 0" in="shadowBlurOuter1" result="shadowMatrixOuter1"/>
      <feMerge>
        <feMergeNode in="shadowMatrixOuter1"/>
        <feMergeNode in="SourceGraphic"/>
      </feMerge>
    </filter>
    <rect id="b" width="47.802" height="17.694" rx="8.847"/>
    <mask id="f" width="47.802" height="17.694" x="0" y="0" fill="white">
      <use xlink:href="#b"/>
    </mask>
    <rect id="h" width="143.096" height="143.102" x="726" y="49" rx="3"/>
    <filter id="g" width="200%" height="200%" x="-50%" y="-50%" filterUnits="objectBoundingBox">
      <feOffset dy="2" in="SourceAlpha" result="shadowOffsetOuter1"/>
      <feGaussianBlur stdDeviation="5" in="shadowOffsetOuter1" result="shadowBlurOuter1"/>
      <feColorMatrix values="0 0 0 0 0.270588235 0 0 0 0 0.270588235 0 0 0 0 0.270588235 0 0 0 0.45 0" in="shadowBlurOuter1"/>
    </filter>
    <filter id="i" width="200%" height="200%" x="-50%" y="-50%" filterUnits="objectBoundingBox">
      <feOffset dy="2" in="SourceAlpha" result="shadowOffsetOuter1"/>
      <feGaussianBlur stdDeviation="5" in="shadowOffsetOuter1" result="shadowBlurOuter1"/>
      <feColorMatrix values="0 0 0 0 0.270115859 0 0 0 0 0.270115859 0 0 0 0 0.270115859 0 0 0 0.359346694 0" in="shadowBlurOuter1" result="shadowMatrixOuter1"/>
      <feMerge>
        <feMergeNode in="shadowMatrixOuter1"/>
        <feMergeNode in="SourceGraphic"/>
      </feMerge>
    </filter>
    <filter id="j" width="200%" height="200%" x="-50%" y="-50%" filterUnits="objectBoundingBox">
      <feOffset dy="2" in="SourceAlpha" result="shadowOffsetOuter1"/>
      <feGaussianBlur stdDeviation="5" in="shadowOffsetOuter1" result="shadowBlurOuter1"/>
      <feColorMatrix values="0 0 0 0 0.270115859 0 0 0 0 0.270115859 0 0 0 0 0.270115859 0 0 0 0.359346694 0" in="shadowBlurOuter1" result="shadowMatrixOuter1"/>
      <feMerge>
        <feMergeNode in="shadowMatrixOuter1"/>
        <feMergeNode in="SourceGraphic"/>
      </feMerge>
    </filter>
    <filter id="k" width="200%" height="200%" x="-50%" y="-50%" filterUnits="objectBoundingBox">
      <feOffset dy="2" in="SourceAlpha" result="shadowOffsetOuter1"/>
      <feGaussianBlur stdDeviation="5" in="shadowOffsetOuter1" result="shadowBlurOuter1"/>
      <feColorMatrix values="0 0 0 0 0.270115859 0 0 0 0 0.270115859 0 0 0 0 0.270115859 0 0 0 0.359346694 0" in="shadowBlurOuter1" result="shadowMatrixOuter1"/>
      <feMerge>
        <feMergeNode in="shadowMatrixOuter1"/>
        <feMergeNode in="SourceGraphic"/>
      </feMerge>
    </filter>
    <rect id="m" width="158.306" height="143.102" x="1029" y="386" rx="3"/>
    <filter id="l" width="200%" height="200%" x="-50%" y="-50%" filterUnits="objectBoundingBox">
      <feOffset dy="2" in="SourceAlpha" result="shadowOffsetOuter1"/>
      <feGaussianBlur stdDeviation="5" in="shadowOffsetOuter1" result="shadowBlurOuter1"/>
      <feColorMatrix values="0 0 0 0 0.270588235 0 0 0 0 0.270588235 0 0 0 0 0.270588235 0 0 0 0.45 0" in="shadowBlurOuter1"/>
    </filter>
  </defs>
  <g fill="none" fill-rule="evenodd" transform="translate(10 8)">
    <path stroke="#C7C7C7" stroke-width="3" d="M197.809091,121.75 L374.337042,121.75" stroke-linecap="square"/>
    <ellipse cx="193.527" cy="120.614" fill="#F9F9F9" stroke="#C7C7C7" stroke-width="3" rx="4.346" ry="4.346"/>
    <path fill="#C7C7C7" d="M375.814006,125.531668 C374.826871,126.025257 374.026639,125.537338 374.026639,124.431518 L374.026639,118.796362 C374.026639,117.695178 374.830497,117.204437 375.814006,117.696212 L381.861769,120.72022 C382.848905,121.213808 382.845278,122.015886 381.861769,122.507661 L375.814006,125.531668 Z"/>
    <path stroke="#C7C7C7" stroke-width="3" d="M581.578871,120.75 L689.416574,120.75" stroke-linecap="square"/>
    <ellipse cx="577.42" cy="120.818" fill="#F9F9F9" stroke="#C7C7C7" stroke-width="3" rx="4.221" ry="4.346"/>
    <path fill="#C7C7C7" d="M691.347141,124.867847 C690.364167,125.373918 689.567309,124.896118 689.567309,123.790298 L689.567309,118.155142 C689.567309,117.053958 690.364109,116.571493 691.347141,117.077593 L697.133067,120.056398 C698.116041,120.562469 698.116099,121.382942 697.133067,121.889042 L691.347141,124.867847 Z"/>
    <path stroke="#C7C7C7" stroke-width="3" d="M912.132563,121.75 L1005.09995,121.75" stroke-linecap="square"/>
    <ellipse cx="907.974" cy="121.332" fill="#F9F9F9" stroke="#C7C7C7" stroke-width="3" rx="4.221" ry="4.346"/>
    <path fill="#C7C7C7" d="M1007.03498,125.160712 C1006.05201,125.666783 1005.25515,125.188983 1005.25515,124.083163 L1005.25515,118.448007 C1005.25515,117.346823 1006.05195,116.864358 1007.03498,117.370458 L1012.82091,120.349263 C1013.80388,120.855334 1013.80394,121.675807 1012.82091,122.181907 L1007.03498,125.160712 Z"/>
    <path stroke="#C7C7C7" stroke-width="3" d="M753.480231,280.75 L846.447615,280.75" stroke-linecap="square" transform="rotate(90 799.956 280.5)"/>
    <ellipse cx="799.879" cy="229.337" fill="#F9F9F9" stroke="#C7C7C7" stroke-width="3" transform="rotate(90 799.879 229.337)" rx="4.221" ry="4.346"/>
    <path fill="#C7C7C7" d="M797.572648,334.664916 C796.589674,335.170987 795.792816,334.693187 795.792816,333.587367 L795.792816,327.952211 C795.792816,326.851027 796.589616,326.368562 797.572648,326.874662 L803.358575,329.853467 C804.341548,330.359538 804.341606,331.180011 803.358575,331.686111 L797.572648,334.664916 Z" transform="rotate(90 799.944 330.77)"/>
    <g filter="url(#c)" transform="translate(385)">
      <rect width="186.397" height="242.745" fill="#FFFFFF" rx="3"/>
      <g transform="translate(69.22 209.53)">
        <use fill="#FFFFFF" stroke="#C7C7C7" stroke-width="6" mask="url(#d)" xlink:href="#a"/>
        <ellipse cx="17.828" cy="8.769" fill="#9B9B9B" rx="1.791" ry="1.785"/>
        <ellipse cx="23.901" cy="8.769" fill="#EAEAEA" rx="1.791" ry="1.785"/>
        <ellipse cx="29.974" cy="8.769" fill="#EAEAEA" rx="1.791" ry="1.785"/>
      </g>
      <g transform="translate(19.555 36.63)">
        <g transform="translate(53.7 7.45)">
          <rect width="66.766" height="6.203" fill="#C7C7C7"/>
          <rect width="81.124" height="4.135" y="13.094" fill="#DADADA"/>
          <rect width="43.654" height="10.865" x=".31" y="23.902" fill="#593961"/>
        </g>
        <rect width="45.629" height="45.631" fill="#EAEAEA"/>
        <g fill="#BCBEC0" opacity=".5" transform="translate(11.407 15.21)">
          <path d="M22.4233491 14.2891268L16.7195761 7.24810781C16.5315397 7.02508911 16.249485 6.86579003 15.9047514 6.86579003 15.5913573 6.86579003 15.2779632 7.02508911 15.0899267 7.24810781L14.3377809 8.17204243C14.3064414 8.20390224 14.275102 8.26762187 14.2437626 8.29948169 14.0557262 8.49064057 13.8050109 8.61807983 13.5229562 8.61807983 13.2409014 8.61807983 13.0215256 8.52250039 12.8334891 8.3313415 12.7708103 8.26762187 12.7081315 8.20390224 12.676792 8.14018261L9.8875844 4.69932264C9.6368691 4.3807245 9.26079616 4.18956561 8.8220444 4.18956561 8.38329263 4.18956561 8.00721969 4.3807245 7.7565044 4.69932264L.297724411 13.906809.172366764 14.0661081C.0783485293 14.2254072.0156697059 14.3847063.0156697059 14.5758652.0156697059 15.0856222.423082058 15.4997998.924512646 15.4997998L.924512646 15.4997998 3.02425323 15.4997998 3.71372029 15.4997998 3.87041735 15.4997998 9.91892381 15.4997998 11.5172338 15.4997998 12.0500038 15.4997998 12.1753615 15.4997998 16.7195761 15.4997998 19.7281597 15.4997998 19.8535173 15.4997998 20.8250391 15.4997998 21.9845973 15.4997998C22.3606703 15.4997998 22.6740644 15.1812016 22.6740644 14.7988839 22.6740644 14.6395848 22.642725 14.5121455 22.5487067 14.3847063L22.4233491 14.2891268 22.4233491 14.2891268zM20.7936997.0159299073C19.5401232.0159299073 18.5059226 1.06730379 18.5059226 2.34169637 18.5059226 3.61608895 19.5401232 4.66746283 20.7936997 4.66746283 22.0472761 4.66746283 23.0814767 3.61608895 23.0814767 2.34169637 23.0814767 1.06730379 22.0472761.0159299073 20.7936997.0159299073L20.7936997.0159299073z"/>
        </g>
        <g transform="translate(0 50.287)">
          <g transform="translate(53.7 7.45)">
            <rect width="66.766" height="6.203" fill="#C7C7C7"/>
            <rect width="81.124" height="4.135" y="13.094" fill="#DADADA"/>
            <rect width="43.654" height="10.865" x=".31" y="23.902" fill="#593961"/>
          </g>
          <rect width="45.629" height="45.631" fill="#EAEAEA"/>
          <g fill="#BCBEC0" opacity=".5" transform="translate(11.407 15.21)">
            <path d="M22.4233491 14.2891268L16.7195761 7.24810781C16.5315397 7.02508911 16.249485 6.86579003 15.9047514 6.86579003 15.5913573 6.86579003 15.2779632 7.02508911 15.0899267 7.24810781L14.3377809 8.17204243C14.3064414 8.20390224 14.275102 8.26762187 14.2437626 8.29948169 14.0557262 8.49064057 13.8050109 8.61807983 13.5229562 8.61807983 13.2409014 8.61807983 13.0215256 8.52250039 12.8334891 8.3313415 12.7708103 8.26762187 12.7081315 8.20390224 12.676792 8.14018261L9.8875844 4.69932264C9.6368691 4.3807245 9.26079616 4.18956561 8.8220444 4.18956561 8.38329263 4.18956561 8.00721969 4.3807245 7.7565044 4.69932264L.297724411 13.906809.172366764 14.0661081C.0783485293 14.2254072.0156697059 14.3847063.0156697059 14.5758652.0156697059 15.0856222.423082058 15.4997998.924512646 15.4997998L.924512646 15.4997998 3.02425323 15.4997998 3.71372029 15.4997998 3.87041735 15.4997998 9.91892381 15.4997998 11.5172338 15.4997998 12.0500038 15.4997998 12.1753615 15.4997998 16.7195761 15.4997998 19.7281597 15.4997998 19.8535173 15.4997998 20.8250391 15.4997998 21.9845973 15.4997998C22.3606703 15.4997998 22.6740644 15.1812016 22.6740644 14.7988839 22.6740644 14.6395848 22.642725 14.5121455 22.5487067 14.3847063L22.4233491 14.2891268 22.4233491 14.2891268zM20.7936997.0159299073C19.5401232.0159299073 18.5059226 1.06730379 18.5059226 2.34169637 18.5059226 3.61608895 19.5401232 4.66746283 20.7936997 4.66746283 22.0472761 4.66746283 23.0814767 3.61608895 23.0814767 2.34169637 23.0814767 1.06730379 22.0472761.0159299073 20.7936997.0159299073L20.7936997.0159299073z"/>
          </g>
        </g>
        <g transform="translate(0 100.575)">
          <g transform="translate(53.7 7.45)">
            <rect width="66.766" height="6.203" fill="#C7C7C7"/>
            <rect width="81.124" height="4.135" y="13.094" fill="#DADADA"/>
            <rect width="43.654" height="10.865" x=".31" y="23.902" fill="#593961"/>
          </g>
          <rect width="45.629" height="45.631" fill="#EAEAEA"/>
          <g fill="#BCBEC0" opacity=".5" transform="translate(11.407 15.21)">
            <path d="M22.4233491 14.2891268L16.7195761 7.24810781C16.5315397 7.02508911 16.249485 6.86579003 15.9047514 6.86579003 15.5913573 6.86579003 15.2779632 7.02508911 15.0899267 7.24810781L14.3377809 8.17204243C14.3064414 8.20390224 14.275102 8.26762187 14.2437626 8.29948169 14.0557262 8.49064057 13.8050109 8.61807983 13.5229562 8.61807983 13.2409014 8.61807983 13.0215256 8.52250039 12.8334891 8.3313415 12.7708103 8.26762187 12.7081315 8.20390224 12.676792 8.14018261L9.8875844 4.69932264C9.6368691 4.3807245 9.26079616 4.18956561 8.8220444 4.18956561 8.38329263 4.18956561 8.00721969 4.3807245 7.7565044 4.69932264L.297724411 13.906809.172366764 14.0661081C.0783485293 14.2254072.0156697059 14.3847063.0156697059 14.5758652.0156697059 15.0856222.423082058 15.4997998.924512646 15.4997998L.924512646 15.4997998 3.02425323 15.4997998 3.71372029 15.4997998 3.87041735 15.4997998 9.91892381 15.4997998 11.5172338 15.4997998 12.0500038 15.4997998 12.1753615 15.4997998 16.7195761 15.4997998 19.7281597 15.4997998 19.8535173 15.4997998 20.8250391 15.4997998 21.9845973 15.4997998C22.3606703 15.4997998 22.6740644 15.1812016 22.6740644 14.7988839 22.6740644 14.6395848 22.642725 14.5121455 22.5487067 14.3847063L22.4233491 14.2891268 22.4233491 14.2891268zM20.7936997.0159299073C19.5401232.0159299073 18.5059226 1.06730379 18.5059226 2.34169637 18.5059226 3.61608895 19.5401232 4.66746283 20.7936997 4.66746283 22.0472761 4.66746283 23.0814767 3.61608895 23.0814767 2.34169637 23.0814767 1.06730379 22.0472761.0159299073 20.7936997.0159299073L20.7936997.0159299073z"/>
          </g>
        </g>
      </g>
    </g>
    <text fill="#4A4A4A" font-family="Roboto-Regular, Roboto" font-size="20">
      <tspan x="388" y="278">View list of concerts</tspan>
    </text>
    <g filter="url(#e)" transform="translate(706.86 338.718)">
      <rect width="186.397" height="285.272" fill="#FFFFFF" rx="3"/>
      <g transform="translate(69.22 252.99)">
        <use fill="#FFFFFF" stroke="#C7C7C7" stroke-width="6" mask="url(#f)" xlink:href="#b"/>
        <ellipse cx="17.828" cy="8.769" fill="#9B9B9B" rx="1.791" ry="1.785"/>
        <ellipse cx="23.901" cy="8.769" fill="#EAEAEA" rx="1.791" ry="1.785"/>
        <ellipse cx="29.974" cy="8.769" fill="#EAEAEA" rx="1.791" ry="1.785"/>
      </g>
      <g transform="translate(19.555 36.63)">
        <g transform="translate(53.7 7.45)">
          <rect width="66.766" height="6.203" fill="#C7C7C7"/>
          <rect width="81.124" height="4.135" y="13.094" fill="#DADADA"/>
          <rect width="43.654" height="10.865" x=".31" y="23.902" fill="#593961"/>
        </g>
        <rect width="45.629" height="45.631" fill="#EAEAEA"/>
        <g fill="#BCBEC0" opacity=".5" transform="translate(11.407 15.21)">
          <path d="M22.4233491 14.2891268L16.7195761 7.24810781C16.5315397 7.02508911 16.249485 6.86579003 15.9047514 6.86579003 15.5913573 6.86579003 15.2779632 7.02508911 15.0899267 7.24810781L14.3377809 8.17204243C14.3064414 8.20390224 14.275102 8.26762187 14.2437626 8.29948169 14.0557262 8.49064057 13.8050109 8.61807983 13.5229562 8.61807983 13.2409014 8.61807983 13.0215256 8.52250039 12.8334891 8.3313415 12.7708103 8.26762187 12.7081315 8.20390224 12.676792 8.14018261L9.8875844 4.69932264C9.6368691 4.3807245 9.26079616 4.18956561 8.8220444 4.18956561 8.38329263 4.18956561 8.00721969 4.3807245 7.7565044 4.69932264L.297724411 13.906809.172366764 14.0661081C.0783485293 14.2254072.0156697059 14.3847063.0156697059 14.5758652.0156697059 15.0856222.423082058 15.4997998.924512646 15.4997998L.924512646 15.4997998 3.02425323 15.4997998 3.71372029 15.4997998 3.87041735 15.4997998 9.91892381 15.4997998 11.5172338 15.4997998 12.0500038 15.4997998 12.1753615 15.4997998 16.7195761 15.4997998 19.7281597 15.4997998 19.8535173 15.4997998 20.8250391 15.4997998 21.9845973 15.4997998C22.3606703 15.4997998 22.6740644 15.1812016 22.6740644 14.7988839 22.6740644 14.6395848 22.642725 14.5121455 22.5487067 14.3847063L22.4233491 14.2891268 22.4233491 14.2891268zM20.7936997.0159299073C19.5401232.0159299073 18.5059226 1.06730379 18.5059226 2.34169637 18.5059226 3.61608895 19.5401232 4.66746283 20.7936997 4.66746283 22.0472761 4.66746283 23.0814767 3.61608895 23.0814767 2.34169637 23.0814767 1.06730379 22.0472761.0159299073 20.7936997.0159299073L20.7936997.0159299073z"/>
        </g>
      </g>
      <g transform="translate(19.555 86.916)">
        <g transform="translate(53.7 7.45)">
          <rect width="66.766" height="6.203" fill="#C7C7C7"/>
          <rect width="81.124" height="4.135" y="13.094" fill="#DADADA"/>
          <rect width="43.654" height="10.865" x=".31" y="23.902" fill="#593961"/>
        </g>
        <rect width="45.629" height="45.631" fill="#EAEAEA"/>
        <g fill="#BCBEC0" opacity=".5" transform="translate(11.407 15.21)">
          <path d="M22.4233491 14.2891268L16.7195761 7.24810781C16.5315397 7.02508911 16.249485 6.86579003 15.9047514 6.86579003 15.5913573 6.86579003 15.2779632 7.02508911 15.0899267 7.24810781L14.3377809 8.17204243C14.3064414 8.20390224 14.275102 8.26762187 14.2437626 8.29948169 14.0557262 8.49064057 13.8050109 8.61807983 13.5229562 8.61807983 13.2409014 8.61807983 13.0215256 8.52250039 12.8334891 8.3313415 12.7708103 8.26762187 12.7081315 8.20390224 12.676792 8.14018261L9.8875844 4.69932264C9.6368691 4.3807245 9.26079616 4.18956561 8.8220444 4.18956561 8.38329263 4.18956561 8.00721969 4.3807245 7.7565044 4.69932264L.297724411 13.906809.172366764 14.0661081C.0783485293 14.2254072.0156697059 14.3847063.0156697059 14.5758652.0156697059 15.0856222.423082058 15.4997998.924512646 15.4997998L.924512646 15.4997998 3.02425323 15.4997998 3.71372029 15.4997998 3.87041735 15.4997998 9.91892381 15.4997998 11.5172338 15.4997998 12.0500038 15.4997998 12.1753615 15.4997998 16.7195761 15.4997998 19.7281597 15.4997998 19.8535173 15.4997998 20.8250391 15.4997998 21.9845973 15.4997998C22.3606703 15.4997998 22.6740644 15.1812016 22.6740644 14.7988839 22.6740644 14.6395848 22.642725 14.5121455 22.5487067 14.3847063L22.4233491 14.2891268 22.4233491 14.2891268zM20.7936997.0159299073C19.5401232.0159299073 18.5059226 1.06730379 18.5059226 2.34169637 18.5059226 3.61608895 19.5401232 4.66746283 20.7936997 4.66746283 22.0472761 4.66746283 23.0814767 3.61608895 23.0814767 2.34169637 23.0814767 1.06730379 22.0472761.0159299073 20.7936997.0159299073L20.7936997.0159299073z"/>
        </g>
      </g>
      <g transform="translate(19.555 137.204)">
        <g transform="translate(53.7 7.45)">
          <rect width="66.766" height="6.203" fill="#C7C7C7"/>
          <rect width="81.124" height="4.135" y="13.094" fill="#DADADA"/>
          <rect width="43.654" height="10.865" x=".31" y="23.902" fill="#593961"/>
        </g>
        <rect width="45.629" height="45.631" fill="#EAEAEA"/>
        <g fill="#BCBEC0" opacity=".5" transform="translate(11.407 15.21)">
          <path d="M22.4233491 14.2891268L16.7195761 7.24810781C16.5315397 7.02508911 16.249485 6.86579003 15.9047514 6.86579003 15.5913573 6.86579003 15.2779632 7.02508911 15.0899267 7.24810781L14.3377809 8.17204243C14.3064414 8.20390224 14.275102 8.26762187 14.2437626 8.29948169 14.0557262 8.49064057 13.8050109 8.61807983 13.5229562 8.61807983 13.2409014 8.61807983 13.0215256 8.52250039 12.8334891 8.3313415 12.7708103 8.26762187 12.7081315 8.20390224 12.676792 8.14018261L9.8875844 4.69932264C9.6368691 4.3807245 9.26079616 4.18956561 8.8220444 4.18956561 8.38329263 4.18956561 8.00721969 4.3807245 7.7565044 4.69932264L.297724411 13.906809.172366764 14.0661081C.0783485293 14.2254072.0156697059 14.3847063.0156697059 14.5758652.0156697059 15.0856222.423082058 15.4997998.924512646 15.4997998L.924512646 15.4997998 3.02425323 15.4997998 3.71372029 15.4997998 3.87041735 15.4997998 9.91892381 15.4997998 11.5172338 15.4997998 12.0500038 15.4997998 12.1753615 15.4997998 16.7195761 15.4997998 19.7281597 15.4997998 19.8535173 15.4997998 20.8250391 15.4997998 21.9845973 15.4997998C22.3606703 15.4997998 22.6740644 15.1812016 22.6740644 14.7988839 22.6740644 14.6395848 22.642725 14.5121455 22.5487067 14.3847063L22.4233491 14.2891268 22.4233491 14.2891268zM20.7936997.0159299073C19.5401232.0159299073 18.5059226 1.06730379 18.5059226 2.34169637 18.5059226 3.61608895 19.5401232 4.66746283 20.7936997 4.66746283 22.0472761 4.66746283 23.0814767 3.61608895 23.0814767 2.34169637 23.0814767 1.06730379 22.0472761.0159299073 20.7936997.0159299073L20.7936997.0159299073z"/>
        </g>
      </g>
      <g transform="translate(19.555 187.18)">
        <g transform="translate(53.7 7.45)">
          <rect width="66.766" height="6.203" fill="#C7C7C7"/>
          <rect width="81.124" height="4.135" y="13.094" fill="#DADADA"/>
          <rect width="43.654" height="10.865" x=".31" y="23.902" fill="#593961"/>
        </g>
        <rect width="45.629" height="45.631" fill="#EAEAEA"/>
        <g fill="#BCBEC0" opacity=".5" transform="translate(11.407 15.21)">
          <path d="M22.4233491 14.2891268L16.7195761 7.24810781C16.5315397 7.02508911 16.249485 6.86579003 15.9047514 6.86579003 15.5913573 6.86579003 15.2779632 7.02508911 15.0899267 7.24810781L14.3377809 8.17204243C14.3064414 8.20390224 14.275102 8.26762187 14.2437626 8.29948169 14.0557262 8.49064057 13.8050109 8.61807983 13.5229562 8.61807983 13.2409014 8.61807983 13.0215256 8.52250039 12.8334891 8.3313415 12.7708103 8.26762187 12.7081315 8.20390224 12.676792 8.14018261L9.8875844 4.69932264C9.6368691 4.3807245 9.26079616 4.18956561 8.8220444 4.18956561 8.38329263 4.18956561 8.00721969 4.3807245 7.7565044 4.69932264L.297724411 13.906809.172366764 14.0661081C.0783485293 14.2254072.0156697059 14.3847063.0156697059 14.5758652.0156697059 15.0856222.423082058 15.4997998.924512646 15.4997998L.924512646 15.4997998 3.02425323 15.4997998 3.71372029 15.4997998 3.87041735 15.4997998 9.91892381 15.4997998 11.5172338 15.4997998 12.0500038 15.4997998 12.1753615 15.4997998 16.7195761 15.4997998 19.7281597 15.4997998 19.8535173 15.4997998 20.8250391 15.4997998 21.9845973 15.4997998C22.3606703 15.4997998 22.6740644 15.1812016 22.6740644 14.7988839 22.6740644 14.6395848 22.642725 14.5121455 22.5487067 14.3847063L22.4233491 14.2891268 22.4233491 14.2891268zM20.7936997.0159299073C19.5401232.0159299073 18.5059226 1.06730379 18.5059226 2.34169637 18.5059226 3.61608895 19.5401232 4.66746283 20.7936997 4.66746283 22.0472761 4.66746283 23.0814767 3.61608895 23.0814767 2.34169637 23.0814767 1.06730379 22.0472761.0159299073 20.7936997.0159299073L20.7936997.0159299073z"/>
        </g>
      </g>
      <path fill="#D8D8D8" d="M134.784736 72.2893774C134.78615 72.2910687 134.787554 72.2927617 134.788948 72.2944563 134.127262 73.9855028 130.598268 77.6040127 130.598268 77.6040127 130.598268 77.6040127 128.031364 74.7176509 126.915034 73.0460529 126.752641 72.8494928 126.619033 72.6261805 126.521064 72.3832869 126.448673 72.2333727 126.407989 72.1117312 126.406681 72.0261921 126.35926 71.8297408 126.334068 71.6240339 126.334068 71.4121712 126.334068 70.0315654 127.403849 68.9123633 128.72349 68.9123633 129.505118 68.9123633 130.199088 69.3050047 130.635028 69.9120427 131.070968 69.3050047 131.764939 68.9123633 132.546567 68.9123633 133.866208 68.9123633 134.935989 70.0315654 134.935989 71.4121712 134.935989 71.7208345 134.882517 72.0164319 134.784736 72.2893774zM134.784736 121.955946C134.78615 121.957637 134.787554 121.95933 134.788948 121.961024 134.127262 123.652071 130.598268 127.270581 130.598268 127.270581 130.598268 127.270581 128.031364 124.384219 126.915034 122.712621 126.752641 122.516061 126.619033 122.292749 126.521064 122.049855 126.448673 121.899941 126.407989 121.778299 126.406681 121.69276 126.35926 121.496309 126.334068 121.290602 126.334068 121.078739 126.334068 119.698134 127.403849 118.578931 128.72349 118.578931 129.505118 118.578931 130.199088 118.971573 130.635028 119.578611 131.070968 118.971573 131.764939 118.578931 132.546567 118.578931 133.866208 118.578931 134.935989 119.698134 134.935989 121.078739 134.935989 121.387403 134.882517 121.683 134.784736 121.955946zM134.784736 172.243346C134.78615 172.245037 134.787554 172.24673 134.788948 172.248425 134.127262 173.939471 130.598268 177.557981 130.598268 177.557981 130.598268 177.557981 128.031364 174.671619 126.915034 173.000021 126.752641 172.803461 126.619033 172.580149 126.521064 172.337255 126.448673 172.187341 126.407989 172.0657 126.406681 171.980161 126.35926 171.783709 126.334068 171.578002 126.334068 171.36614 126.334068 169.985534 127.403849 168.866332 128.72349 168.866332 129.505118 168.866332 130.199088 169.258973 130.635028 169.866011 131.070968 169.258973 131.764939 168.866332 132.546567 168.866332 133.866208 168.866332 134.935989 169.985534 134.935989 171.36614 134.935989 171.674803 134.882517 171.9704 134.784736 172.243346zM134.784736 221.909914C134.78615 221.911605 134.787554 221.913298 134.788948 221.914993 134.127262 223.606039 130.598268 227.224549 130.598268 227.224549 130.598268 227.224549 128.031364 224.338187 126.915034 222.666589 126.752641 222.470029 126.619033 222.246717 126.521064 222.003823 126.448673 221.853909 126.407989 221.732268 126.406681 221.646729 126.35926 221.450277 126.334068 221.24457 126.334068 221.032708 126.334068 219.652102 127.403849 218.5329 128.72349 218.5329 129.505118 218.5329 130.199088 218.925541 130.635028 219.532579 131.070968 218.925541 131.764939 218.5329 132.546567 218.5329 133.866208 218.5329 134.935989 219.652102 134.935989 221.032708 134.935989 221.341371 134.882517 221.636968 134.784736 221.909914z"/>
    </g>
    <text fill="#4A4A4A" font-family="Roboto-Regular, Roboto" font-size="20">
      <tspan x="665.628" y="665.401">Discover and favorite concerts</tspan>
    </text>
    <text fill="#4A4A4A" font-family="Roboto-Regular, Roboto" font-size="20">
      <tspan x="233.442" y="108.2">Get location</tspan>
    </text>
    <polyline stroke="#C7C7C7" stroke-width="3" points="799.288 819.648 1003.845 819.648 1003.845 688.031" stroke-linecap="square" transform="matrix(-1 0 0 1 1803.133 0)"/>
    <ellipse cx="1008.004" cy="819.648" fill="#F9F9F9" stroke="#C7C7C7" stroke-width="3" transform="matrix(-1 0 0 1 2016.007 0)" rx="4.221" ry="4.346"/>
    <path fill="#C7C7C7" d="M794.903496,688.513136 C794.747197,688.81675 794.898097,689.062878 795.240744,689.062878 L803.622737,689.062878 C803.965293,689.062878 804.116773,688.817699 803.959985,688.513136 L799.714744,680.26664 C799.558445,679.963026 799.305524,679.962076 799.148737,680.26664 L794.903496,688.513136 L794.903496,688.513136 Z" transform="matrix(-1 0 0 1 1598.864 0)"/>
    <g transform="rotate(45 797.548 120.55)">
      <use fill="black" filter="url(#g)" xlink:href="#h"/>
      <use fill="#FFFFFF" xlink:href="#h"/>
    </g>
    <text fill="#4A4A4A" font-family="Roboto-Regular, Roboto" font-size="20">
      <tspan x="719" y="128">Purchase tickets?</tspan>
    </text>
    <text fill="#4A4A4A" font-family="Roboto-Regular, Roboto" font-size="20">
      <tspan x="941.422" y="109.742">Yes</tspan>
    </text>
    <text fill="#4A4A4A" font-family="Roboto-Regular, Roboto" font-size="20">
      <tspan x="807.62" y="291.095">No</tspan>
    </text>
    <g filter="url(#i)">
      <rect width="186.397" height="219.309" fill="#FFFFFF" rx="3"/>
      <rect width="68.599" height="17.073" x="58.977" y="181.389" fill="#593961"/>
      <g fill="#C7C7C7" transform="translate(78.332 36.977)">
        <ellipse cx="3.964" cy="29.282" rx="3.964" ry="3.254"/>
        <ellipse cx="19.819" cy="25.321" rx="3.964" ry="3.254"/>
        <polygon points="7.978 11.238 7.978 29.182 6.254 29.182 6.254 5.182 23.875 .023 23.875 1.335 23.875 25.176 22.151 25.176 22.151 7.073"/>
      </g>
      <rect width="99.736" height="9.024" y=".093" fill="#DADADA" transform="translate(43.146 128.96)"/>
      <rect width="99.736" height="9.024" y=".03" fill="#DADADA" transform="translate(43.146 143.337)"/>
      <text fill="#4A4A4A" font-family="Roboto-Regular, Roboto" font-size="20">
        <tspan x="44" y="99">TicketPass</tspan>
      </text>
    </g>
    <text fill="#4A4A4A" font-family="Roboto-Regular, Roboto" font-size="20">
      <tspan x="64" y="262">Login</tspan>
    </text>
    <g filter="url(#j)" transform="translate(1021.478)">
      <rect width="186.397" height="219.309" fill="#FFFFFF" rx="3"/>
      <g transform="translate(3.725 14.9)">
        <rect width="141.233" height="6.208" x="12.416" y="122.925" fill="#C7C7C7"/>
        <rect width="91.988" height="4.135" x="12.416" y="142.481" fill="#DADADA"/>
        <rect width="91.988" height="4.135" x="12.416" y="133.789" fill="#DADADA"/>
        <rect width="152.408" height="17.383" x="13.347" y="168.556" fill="#593961"/>
        <rect width="179.103" height="107.094" fill="#EAEAEA"/>
        <g fill="#BCBEC0" opacity=".5" transform="translate(77.911 50.598)">
          <path d="M22.4233491 14.2891268L16.7195761 7.24810781C16.5315397 7.02508911 16.249485 6.86579003 15.9047514 6.86579003 15.5913573 6.86579003 15.2779632 7.02508911 15.0899267 7.24810781L14.3377809 8.17204243C14.3064414 8.20390224 14.275102 8.26762187 14.2437626 8.29948169 14.0557262 8.49064057 13.8050109 8.61807983 13.5229562 8.61807983 13.2409014 8.61807983 13.0215256 8.52250039 12.8334891 8.3313415 12.7708103 8.26762187 12.7081315 8.20390224 12.676792 8.14018261L9.8875844 4.69932264C9.6368691 4.3807245 9.26079616 4.18956561 8.8220444 4.18956561 8.38329263 4.18956561 8.00721969 4.3807245 7.7565044 4.69932264L.297724411 13.906809.172366764 14.0661081C.0783485293 14.2254072.0156697059 14.3847063.0156697059 14.5758652.0156697059 15.0856222.423082058 15.4997998.924512646 15.4997998L.924512646 15.4997998 3.02425323 15.4997998 3.71372029 15.4997998 3.87041735 15.4997998 9.91892381 15.4997998 11.5172338 15.4997998 12.0500038 15.4997998 12.1753615 15.4997998 16.7195761 15.4997998 19.7281597 15.4997998 19.8535173 15.4997998 20.8250391 15.4997998 21.9845973 15.4997998C22.3606703 15.4997998 22.6740644 15.1812016 22.6740644 14.7988839 22.6740644 14.6395848 22.642725 14.5121455 22.5487067 14.3847063L22.4233491 14.2891268 22.4233491 14.2891268zM20.7936997.0159299073C19.5401232.0159299073 18.5059226 1.06730379 18.5059226 2.34169637 18.5059226 3.61608895 19.5401232 4.66746283 20.7936997 4.66746283 22.0472761 4.66746283 23.0814767 3.61608895 23.0814767 2.34169637 23.0814767 1.06730379 22.0472761.0159299073 20.7936997.0159299073L20.7936997.0159299073z"/>
        </g>
      </g>
    </g>
    <text fill="#4A4A4A" font-family="Roboto-Regular, Roboto" font-size="20">
      <tspan x="1032.09" y="256.378">View date and time</tspan>
    </text>
    <path stroke="#C7C7C7" stroke-width="3" d="M1060.62203,327.532641 L1156.18418,327.532641" stroke-linecap="square" transform="rotate(90 1108.405 327.283)"/>
    <ellipse cx="1108.327" cy="272.758" fill="#F9F9F9" stroke="#C7C7C7" stroke-width="3" transform="rotate(90 1108.327 272.758)" rx="4.346" ry="4.346"/>
    <path fill="#C7C7C7" d="M1105.67141,382.431998 C1104.68428,382.925586 1103.88405,382.437668 1103.88405,381.331848 L1103.88405,375.696691 C1103.88405,374.595507 1104.68791,374.104766 1105.67141,374.596541 L1111.71918,377.620549 C1112.70631,378.114137 1112.70269,378.916215 1111.71918,379.40799 L1105.67141,382.431998 Z" transform="rotate(90 1108.171 378.515)"/>
    <path stroke="#C7C7C7" stroke-width="3" d="M1063.62203,637.532641 L1153.18418,637.532641" stroke-linecap="square" transform="rotate(90 1108.405 637.283)"/>
    <ellipse cx="1108.327" cy="586.123" fill="#F9F9F9" stroke="#C7C7C7" stroke-width="3" transform="rotate(90 1108.327 586.123)" rx="4.346" ry="4.346"/>
    <path fill="#C7C7C7" d="M1105.67141,689.796778 C1104.68428,690.290366 1103.88405,689.802448 1103.88405,688.696628 L1103.88405,683.061471 C1103.88405,681.960287 1104.68791,681.469546 1105.67141,681.961321 L1111.71918,684.985329 C1112.70631,685.478917 1112.70269,686.280995 1111.71918,686.77277 L1105.67141,689.796778 Z" transform="rotate(90 1108.171 685.88)"/>
    <g filter="url(#k)" transform="translate(1013.767 696.454)">
      <rect width="186.397" height="181.593" fill="#FFFFFF" rx="3"/>
      <g transform="translate(73.255 22.35)">
        <rect width="66.766" height="6.203" fill="#C7C7C7"/>
        <rect width="81.124" height="4.135" y="13.094" fill="#DADADA"/>
      </g>
      <g transform="translate(19.555 14.9)">
        <rect width="45.629" height="45.631" fill="#EAEAEA"/>
        <g fill="#BCBEC0" opacity=".5" transform="translate(11.407 15.21)">
          <path d="M22.4233491 14.2891268L16.7195761 7.24810781C16.5315397 7.02508911 16.249485 6.86579003 15.9047514 6.86579003 15.5913573 6.86579003 15.2779632 7.02508911 15.0899267 7.24810781L14.3377809 8.17204243C14.3064414 8.20390224 14.275102 8.26762187 14.2437626 8.29948169 14.0557262 8.49064057 13.8050109 8.61807983 13.5229562 8.61807983 13.2409014 8.61807983 13.0215256 8.52250039 12.8334891 8.3313415 12.7708103 8.26762187 12.7081315 8.20390224 12.676792 8.14018261L9.8875844 4.69932264C9.6368691 4.3807245 9.26079616 4.18956561 8.8220444 4.18956561 8.38329263 4.18956561 8.00721969 4.3807245 7.7565044 4.69932264L.297724411 13.906809.172366764 14.0661081C.0783485293 14.2254072.0156697059 14.3847063.0156697059 14.5758652.0156697059 15.0856222.423082058 15.4997998.924512646 15.4997998L.924512646 15.4997998 3.02425323 15.4997998 3.71372029 15.4997998 3.87041735 15.4997998 9.91892381 15.4997998 11.5172338 15.4997998 12.0500038 15.4997998 12.1753615 15.4997998 16.7195761 15.4997998 19.7281597 15.4997998 19.8535173 15.4997998 20.8250391 15.4997998 21.9845973 15.4997998C22.3606703 15.4997998 22.6740644 15.1812016 22.6740644 14.7988839 22.6740644 14.6395848 22.642725 14.5121455 22.5487067 14.3847063L22.4233491 14.2891268 22.4233491 14.2891268zM20.7936997.0159299073C19.5401232.0159299073 18.5059226 1.06730379 18.5059226 2.34169637 18.5059226 3.61608895 19.5401232 4.66746283 20.7936997 4.66746283 22.0472761 4.66746283 23.0814767 3.61608895 23.0814767 2.34169637 23.0814767 1.06730379 22.0472761.0159299073 20.7936997.0159299073L20.7936997.0159299073z"/>
        </g>
      </g>
      <rect width="66.766" height="6.203" x="73.255" y="74.189" fill="#C7C7C7"/>
      <rect width="81.124" height="4.135" x="73.255" y="87.284" fill="#DADADA"/>
      <g transform="translate(19.555 65.187)">
        <rect width="45.629" height="45.631" fill="#EAEAEA"/>
        <g fill="#BCBEC0" opacity=".5" transform="translate(11.407 15.21)">
          <path d="M22.4233491 14.2891268L16.7195761 7.24810781C16.5315397 7.02508911 16.249485 6.86579003 15.9047514 6.86579003 15.5913573 6.86579003 15.2779632 7.02508911 15.0899267 7.24810781L14.3377809 8.17204243C14.3064414 8.20390224 14.275102 8.26762187 14.2437626 8.29948169 14.0557262 8.49064057 13.8050109 8.61807983 13.5229562 8.61807983 13.2409014 8.61807983 13.0215256 8.52250039 12.8334891 8.3313415 12.7708103 8.26762187 12.7081315 8.20390224 12.676792 8.14018261L9.8875844 4.69932264C9.6368691 4.3807245 9.26079616 4.18956561 8.8220444 4.18956561 8.38329263 4.18956561 8.00721969 4.3807245 7.7565044 4.69932264L.297724411 13.906809.172366764 14.0661081C.0783485293 14.2254072.0156697059 14.3847063.0156697059 14.5758652.0156697059 15.0856222.423082058 15.4997998.924512646 15.4997998L.924512646 15.4997998 3.02425323 15.4997998 3.71372029 15.4997998 3.87041735 15.4997998 9.91892381 15.4997998 11.5172338 15.4997998 12.0500038 15.4997998 12.1753615 15.4997998 16.7195761 15.4997998 19.7281597 15.4997998 19.8535173 15.4997998 20.8250391 15.4997998 21.9845973 15.4997998C22.3606703 15.4997998 22.6740644 15.1812016 22.6740644 14.7988839 22.6740644 14.6395848 22.642725 14.5121455 22.5487067 14.3847063L22.4233491 14.2891268 22.4233491 14.2891268zM20.7936997.0159299073C19.5401232.0159299073 18.5059226 1.06730379 18.5059226 2.34169637 18.5059226 3.61608895 19.5401232 4.66746283 20.7936997 4.66746283 22.0472761 4.66746283 23.0814767 3.61608895 23.0814767 2.34169637 23.0814767 1.06730379 22.0472761.0159299073 20.7936997.0159299073L20.7936997.0159299073z"/>
        </g>
      </g>
      <rect width="66.766" height="6.203" x="73.255" y="119.821" fill="#C7C7C7"/>
      <rect width="81.124" height="4.135" x="73.255" y="132.915" fill="#DADADA"/>
      <g transform="translate(19.555 115.475)">
        <rect width="45.629" height="45.631" fill="#EAEAEA"/>
        <g fill="#BCBEC0" opacity=".5" transform="translate(11.407 15.21)">
          <path d="M22.4233491 14.2891268L16.7195761 7.24810781C16.5315397 7.02508911 16.249485 6.86579003 15.9047514 6.86579003 15.5913573 6.86579003 15.2779632 7.02508911 15.0899267 7.24810781L14.3377809 8.17204243C14.3064414 8.20390224 14.275102 8.26762187 14.2437626 8.29948169 14.0557262 8.49064057 13.8050109 8.61807983 13.5229562 8.61807983 13.2409014 8.61807983 13.0215256 8.52250039 12.8334891 8.3313415 12.7708103 8.26762187 12.7081315 8.20390224 12.676792 8.14018261L9.8875844 4.69932264C9.6368691 4.3807245 9.26079616 4.18956561 8.8220444 4.18956561 8.38329263 4.18956561 8.00721969 4.3807245 7.7565044 4.69932264L.297724411 13.906809.172366764 14.0661081C.0783485293 14.2254072.0156697059 14.3847063.0156697059 14.5758652.0156697059 15.0856222.423082058 15.4997998.924512646 15.4997998L.924512646 15.4997998 3.02425323 15.4997998 3.71372029 15.4997998 3.87041735 15.4997998 9.91892381 15.4997998 11.5172338 15.4997998 12.0500038 15.4997998 12.1753615 15.4997998 16.7195761 15.4997998 19.7281597 15.4997998 19.8535173 15.4997998 20.8250391 15.4997998 21.9845973 15.4997998C22.3606703 15.4997998 22.6740644 15.1812016 22.6740644 14.7988839 22.6740644 14.6395848 22.642725 14.5121455 22.5487067 14.3847063L22.4233491 14.2891268 22.4233491 14.2891268zM20.7936997.0159299073C19.5401232.0159299073 18.5059226 1.06730379 18.5059226 2.34169637 18.5059226 3.61608895 19.5401232 4.66746283 20.7936997 4.66746283 22.0472761 4.66746283 23.0814767 3.61608895 23.0814767 2.34169637 23.0814767 1.06730379 22.0472761.0159299073 20.7936997.0159299073L20.7936997.0159299073z"/>
        </g>
      </g>
    </g>
    <text fill="#4A4A4A" font-family="Roboto-Regular, Roboto" font-size="20">
      <tspan x="1003.583" y="913.769">View purchased tickets</tspan>
    </text>
    <text fill="#4A4A4A" font-family="Roboto-Regular, Roboto" font-size="20">
      <tspan x="1035" y="564">Purchase tickets</tspan>
    </text>
    <use fill="black" filter="url(#l)" xlink:href="#m"/>
    <use fill="#FFFFFF" xlink:href="#m"/>
    <rect width="65.185" height="9.312" x="1075.749" y="482.621" fill="#C7C7C7"/>
    <rect width="80.705" height="6.208" x="1068" y="494" fill="#DADADA"/>
    <g transform="translate(1087.545 418.054)">
      <ellipse cx="20.797" cy="20.798" fill="#593961" rx="20.797" ry="20.798"/>
      <path fill="#FFFFFF" d="M3.71117813,13.735768 L3.70678571,13.7401604 L7.21859607,17.2519707 L20.8274283,3.64313847 L17.315618,0.131328115 L7.22298849,10.2239576 L3.79193561,6.79290471 L0.280125252,10.3047151 L3.71117813,13.735768 Z" transform="translate(10.243 12.106)"/>
    </g>
  </g>
</svg>
