<?xml version="1.0" encoding="UTF-8"?>
<svg width="379px" height="93px" viewBox="0 0 379 93" version="1.1" xmlns="http://www.w3.org/2000/svg" xmlns:xlink="http://www.w3.org/1999/xlink">
    <!-- Generator: Sketch 40.3 (33839) - http://www.bohemiancoding.com/sketch -->
    <title>walmart-logo</title>
    <desc>Created with Sketch.</desc>
    <defs></defs>
    <g id="Main" stroke="none" stroke-width="1" fill="none" fill-rule="evenodd">
        <g transform="translate(-160.000000, -3422.000000)" id="walmart-logo" fill="#9B9B9B">
            <g transform="translate(160.000000, 3422.000000)">
                <g id="layer1" transform="translate(0.019551, 0.200269)">
                    <path d="M338.153222,31.1539932 C340.293195,31.1539932 342.055018,30.0367028 342.292949,28.5938902 L344.406006,4.61092703 C344.406006,2.23995992 341.638628,0.293941597 338.1603,0.293941597 C334.684791,0.293941597 331.920255,2.23996006 331.920255,4.61092703 L334.031897,28.5938902 C334.264166,30.0367027 336.025989,31.1539932 338.1603,31.1539932 L338.153222,31.1539932" id="path2974"></path>
                    <path d="M325.238332,38.6451664 C326.311862,36.7872958 326.231126,34.6991651 325.099539,33.7710106 L305.458839,19.9429146 C303.416589,18.756043 300.354628,20.1846268 298.616879,23.2094144 C296.873458,26.2300375 297.182206,29.6046399 299.218795,30.7915116 L320.9669,40.9550547 C322.32651,41.4610368 324.180393,40.4874203 325.245431,38.6309378 L325.238353,38.6451664" id="path2976"></path>
                    <path d="M351.079437,38.632326 C352.151552,40.4888085 353.995516,41.462425 355.356541,40.9564429 L377.104646,30.7928998 C379.153974,29.6060282 379.445726,26.2314257 377.717886,23.2108026 C375.971639,20.1887913 372.904016,18.7572576 370.867428,19.9443028 L351.225296,33.7723988 C350.102202,34.6991651 350.018645,36.7886839 351.086503,38.6465546 L351.07801,38.632326" id="path2978"></path>
                    <path d="M338.153222,61.112786 C340.293195,61.112786 342.055018,62.2201858 342.292949,63.6643865 L344.406006,87.6445734 C344.406006,90.0226547 341.638628,91.9643351 338.1603,91.9643351 C334.684791,91.9643351 331.920255,90.0226547 331.920255,87.6445734 L334.031897,63.6643865 C334.264166,62.2201858 336.025989,61.112786 338.1603,61.112786 L338.153222,61.112786" id="path2980"></path>
                    <path d="M351.079437,53.6202248 C352.151552,51.7580162 353.995516,50.7929021 355.356541,51.3046104 L377.104646,61.4610391 C379.153974,62.6494725 379.445726,66.0268511 377.717886,69.0502507 C375.971639,72.0623714 372.904016,73.4980696 370.867428,72.312586 L351.225296,58.4973304 C350.102202,57.5634498 350.018645,55.4723692 351.086503,53.6160603 L351.07801,53.6160603" id="path2982"></path>
                    <path d="M325.238332,53.6174485 C326.311862,55.4725428 326.231126,57.5634498 325.099539,58.4987186 L305.458839,72.3139742 C303.416589,73.4994578 300.354628,72.0637595 298.616879,69.0516389 C296.873458,66.0282395 297.182206,62.6506872 299.218795,61.4624273 L320.9669,51.3059986 C322.32651,50.7942903 324.180393,51.7594044 325.245431,53.621613 L325.238353,53.621613" id="path2984"></path>
                    <path d="M214.26295,58.4532564 C214.26295,59.1894986 214.197795,59.9486454 213.996688,60.6153063 C213.16393,63.3843264 210.307334,65.7254482 206.734092,65.7254482 C203.754273,65.7254482 201.387715,64.0268683 201.387715,60.4390108 C201.387715,54.9478206 207.409656,53.4310888 214.264355,53.4696101 L214.264355,58.4532564 L214.26295,58.4532564 L214.26295,58.4532564 Z M225.015198,48.8838432 C225.015198,39.8290882 221.160124,31.8617782 208.134772,31.8617782 C201.448613,31.8617782 196.141869,33.7467179 193.245617,35.4269047 L195.367178,42.7062108 C198.014175,41.0288002 202.233223,39.6401257 206.225663,39.6401257 C212.832512,39.6217326 213.914547,43.3956029 213.914547,45.8106438 L213.914547,46.3820426 C199.512577,46.3606998 190.408859,51.365689 190.408859,61.5618537 C190.408859,67.7922359 195.045701,73.6273413 203.105636,73.6273413 C208.058293,73.6273413 212.206523,71.6429751 214.689237,68.4616732 L214.934257,68.4616732 C214.934257,68.4616732 216.577125,75.368607 225.645445,72.7260823 C225.172414,69.8532976 225.016625,66.7872125 225.016625,63.0999283 L225.016625,48.8838431 L225.015198,48.8838432 Z" id="path2986"></path>
                    <path d="M0.619959987,19.5306328 C0.619959987,19.5306328 10.0310001,58.2358368 11.5336599,64.5172337 C13.2870006,71.8491161 16.4466617,74.548555 25.5518279,72.7262559 L31.427877,48.7304523 C32.9177866,42.7674632 33.9148486,38.515721 34.8750433,32.4560818 L35.0421784,32.4560818 C35.7163374,38.5797497 36.6722965,42.7858563 37.8987748,48.750407 C37.8987748,48.750407 40.2894072,59.6444661 41.5158856,65.3645283 C42.7437903,71.0830287 46.1612206,74.6894528 55.0808395,72.726256 L69.0834047,19.5292447 L57.7816247,19.5292447 L52.9988905,42.530089 C51.7129402,49.2223795 50.54736,54.4562406 49.6480203,60.5785204 L49.4879734,60.5785204 C48.6707967,54.5117669 47.6298222,49.4895991 46.3240334,42.9678781 L41.3487071,19.5292447 L29.5710655,19.5292447 L24.2459095,42.3765244 C22.7390141,49.3218059 21.3255623,54.9266512 20.4305015,60.8441783 L20.2676453,60.8441783 C19.3485105,55.2719546 18.1248414,48.2242966 16.8006407,41.5051107 C16.8006407,41.5051107 13.6395534,25.1625472 12.5277831,19.5292447 L0.619873737,19.5292447" id="path2988"></path>
                    <path d="M90.4618693,58.4532564 C90.4618693,59.1894986 90.3967354,59.9486454 90.1927763,60.6153063 C89.361423,63.3843264 86.5034002,65.7254482 82.930202,65.7254482 C79.9503829,65.7254482 77.5866339,64.0268683 77.5866339,60.4390108 C77.5866339,54.9478206 83.6071703,53.4310888 90.4632956,53.4696101 L90.4632956,58.4532564 L90.4618693,58.4532564 L90.4618693,58.4532564 Z M101.212713,48.8838432 C101.212713,39.8290882 97.3576713,31.8617782 84.3351392,31.8617782 C77.647532,31.8617782 72.3365524,33.7467179 69.4417488,35.4269047 L71.5604787,42.7062108 C74.2074539,41.0288002 78.4265015,39.6401257 82.4203686,39.6401257 C89.0314749,39.6217326 90.1135091,43.3956029 90.1135091,45.8106438 L90.1135091,46.3820426 C75.7058779,46.3606998 66.6064171,51.365689 66.6064171,61.5618537 C66.6064171,67.7922359 71.2404283,73.6273413 79.2946791,73.6273413 C84.254446,73.6273413 88.399802,71.6429751 90.8853474,68.4616732 L91.1275139,68.4616732 C91.1275139,68.4616732 92.7746178,75.368607 101.841533,72.7260823 C101.367098,69.8532976 101.212713,66.7872125 101.212713,63.0999283 L101.212713,48.8838432 L101.212713,48.8838432 Z" id="path2990"></path>
                    <polyline id="path2992" points="119.155335 61.4341436 119.155335 19.5306328 108.390337 19.5306328 108.390337 72.7276441 119.155335 72.7276441 119.155335 61.4341436"></polyline>
                    <path d="M259.978434,19.5306328 L259.978434,58.773226 C259.978434,64.186159 260.995312,67.9744314 263.163595,70.292822 C265.062806,72.3198739 268.184239,73.6318529 271.927424,73.6318529 C275.111181,73.6318529 278.241128,73.0221062 279.718287,72.4718768 L279.579484,64.0312063 C278.480463,64.3012023 277.218566,64.5187954 275.490747,64.5187954 C271.822636,64.5187954 270.596157,62.1604953 270.596157,57.3033444 L270.596157,42.2883766 L279.970395,42.2883766 L279.970395,32.1092169 L270.596157,32.1092169 L270.596157,19.5306329 L259.978455,19.5306329" id="path2994"></path>
                    <path d="M232.192822,32.7644254 L232.192822,72.7276441 L243.297731,72.7276441 L243.297731,52.26556 C243.297731,51.1597218 243.364291,50.1958224 243.538493,49.3145181 C244.359927,45.0259898 247.625825,42.2882031 252.316477,42.2882031 C253.602449,42.2882031 254.52301,42.4289271 255.52005,42.5710394 L255.52005,32.1090432 C254.683035,31.9412501 254.115113,31.8631665 253.07416,31.8631665 C248.930187,31.8631665 244.215439,34.5468152 242.23694,40.3038369 L241.936684,40.3038369 L241.936684,32.7644254 L232.1928,32.7644254" id="path2996"></path>
                    <path d="M126.692686,32.7644254 L126.692686,72.7276441 L137.511495,72.7276441 L137.511495,49.2933487 C137.511495,48.1930631 137.640379,47.0303107 138.019923,46.0225109 C138.91641,43.6628225 141.104531,40.8995285 144.595632,40.8995285 C148.963381,40.8995285 151.0028,44.6038174 151.0028,49.9499456 L151.0028,72.7260825 L161.813116,72.7260825 L161.813116,49.0060009 C161.813116,47.9569035 161.956155,46.6917746 162.264903,45.7663966 C163.152898,43.0811861 165.509558,40.8977935 168.75564,40.8977935 C173.181456,40.8977935 175.305848,44.5368392 175.305848,50.8296883 L175.305848,72.7245208 L186.123251,72.7245208 L186.123251,49.1864609 C186.123251,36.7741083 179.843541,31.8602168 172.753742,31.8602168 C169.616729,31.8602168 167.138272,32.6492088 164.896319,34.0266047 C163.014115,35.1907453 161.32593,36.8396988 159.853006,39.0074747 L159.69296,39.0074747 C157.983531,34.7003799 153.961355,31.8603903 148.719766,31.8603903 C141.985437,31.8603903 138.958896,35.2861809 137.123414,38.1915872 L136.961963,38.1915872 L136.961963,32.7616493 L126.692643,32.7616493" id="path2998"></path>
                </g>
            </g>
        </g>
    </g>
</svg>