<svg xmlns="http://www.w3.org/2000/svg" width="533" height="130" viewBox="0 0 533 130">
  <g fill="none" transform="translate(.027 .28)">
    <path fill="#FFC220" d="M475.3703 43.6172272C478.378639 43.6172272 480.855381 42.0529619 481.189861 40.0329484L484.160362 6.45554007C484.160362 3.13606156 480.270027.411533678 475.38025.411533678 470.494437.411533678 466.608097 3.13606176 466.608097 6.45554007L469.576608 40.0329484C469.903128 42.0529617 472.37987 43.6172272 475.38025 43.6172272L475.3703 43.6172272M457.214757 54.1052632C458.723909 51.5041468 458.610411 48.5806541 457.019644 47.281189L429.409068 27.9211281C426.538106 26.2594455 422.233652 28.259538 419.790753 32.4943995 417.339879 36.7234305 417.773912 41.4480511 420.636915 43.1097339L451.210049 57.3392281C453.121366 58.0476296 455.727524 56.6845154 457.224737 54.0853424L457.214788 54.1052632M493.541762 54.0872859C495.048924 56.686459 497.641139 58.0495732 499.554446 57.3411717L530.127579 43.1116775C533.008491 41.4499949 533.418631 36.7253741 530.989661 32.4963431 528.534815 28.2653684 524.222401 26.261146 521.359398 27.9230717L493.746809 47.2831326C492.167982 48.5806541 492.050519 51.5060902 493.551696 54.1072068L493.539757 54.0872859M475.3703 85.561111C478.378639 85.561111 480.855381 87.1115289 481.189861 89.1334857L484.160362 122.707007C484.160362 126.036446 480.270027 128.754901 475.38025 128.754901 470.494437 128.754901 466.608097 126.036446 466.608097 122.707007L469.576608 89.1334857C469.903128 87.1115289 472.37987 85.561111 475.38025 85.561111L475.3703 85.561111M493.541762 75.0711316C495.048924 72.4639417 497.641139 71.1127313 499.554446 71.8291498L530.127579 86.0486836C533.008491 87.7125528 533.418631 92.4410603 530.989661 96.6739785 528.534815 100.891106 524.222401 102.901159 521.359398 101.241419L493.746809 81.8993357C492.167982 80.5918538 492.050519 77.6642311 493.551696 75.0653011L493.539757 75.0653011M457.214757 75.0672447C458.723909 77.6644741 458.610411 80.5918538 457.019644 81.9012792L429.409068 101.243363C426.538106 102.903102 422.233652 100.893049 419.790753 96.675922 417.339879 92.443004 417.773912 87.7142534 420.636915 86.0506272L451.210049 71.8310934C453.121366 71.1146748 455.727524 72.4658853 457.224737 75.0730752L457.214788 75.0730752"/>
    <path fill="#007DC6" d="M301.20737 81.8376298C301.20737 82.8684075 301.115776 83.931253 300.833064 84.8646132 299.662386 88.7413869 295.646629 92.0190804 290.623424 92.0190804 286.434443 92.0190804 283.107574 89.6409792 283.107574 84.6177903 283.107574 76.9298355 291.573121 74.8063314 301.209345 74.8602632L301.209345 81.8376298 301.20737 81.8376298 301.20737 81.8376298zM316.322706 68.4399486C316.322706 55.7628159 310.903306 44.6081634 292.592478 44.6081634 283.193184 44.6081634 275.733049 47.2471779 271.661546 49.5995277L274.644002 59.7909387C278.365107 57.4424758 284.296175 55.4982585 289.908683 55.4982585 299.196484 55.4725071 300.717591 60.7561238 300.717591 64.137308L300.717591 64.9372963C280.471537 64.9074153 267.673678 71.914663 267.673678 86.1898294 267.673678 94.9126917 274.192075 103.082146 285.522599 103.082146 292.484964 103.082146 298.316479 100.303929 301.806638 95.8499391L302.151082 95.8499391C302.151082 95.8499391 304.4606 105.520009 317.208697 101.820336 316.543718 97.7982864 316.324711 93.5056061 316.324711 88.3432146L316.324711 68.4399484 316.322706 68.4399486zM.871529667 27.3439119C.871529667 27.3439119 14.1014168 81.5332309 16.2138315 90.3275165 18.6786494 100.592537 23.1204495 104.371893 35.9203441 101.820579L44.1807983 68.2251933C46.275289 59.8766953 47.6769426 53.9240328 49.0267687 45.4402196L49.2617245 45.4402196C50.2094463 54.0136763 51.5533179 59.9024466 53.2774813 68.2531309 53.2774813 68.2531309 56.6381934 83.5053859 58.3623567 91.5137735 60.0885252 99.5199745 64.8926932 104.569158 77.4317484 101.820579L97.1163268 27.3419686 81.2284683 27.3419686 74.5049783 59.5443589C72.6972103 68.9139171 71.0586567 76.2415976 69.7943795 84.813111L69.5693882 84.813111C68.4206144 76.3193374 66.9572294 69.2880387 65.1215728 60.1572866L58.12734 27.3419686 41.5705229 27.3419686 34.0845052 59.3293604C31.9661361 69.0531193 29.9791286 76.9001973 28.7208667 85.185046L28.4919262 85.185046C27.1998214 77.3836402 25.4796073 67.5165488 23.6180675 58.1093355 23.6180675 58.1093355 19.1742623 35.228888 17.6113537 27.3419686L.871408418 27.3419686M127.169825 81.8376298C127.169825 82.8684075 127.078261 83.931253 126.791538 84.8646132 125.622835 88.7413869 121.605073 92.0190804 116.581929 92.0190804 112.392948 92.0190804 109.070028 89.6409792 109.070028 84.6177903 109.070028 76.9298355 117.5336 74.8063314 127.17183 74.8602632L127.17183 81.8376298 127.169825 81.8376298 127.169825 81.8376298zM142.283186 68.4399486C142.283186 55.7628159 136.863831 44.6081634 118.556967 44.6081634 109.155638 44.6081634 101.689549 47.2471779 97.6200811 49.5995277L100.598557 59.7909387C104.319632 57.4424758 110.2507 55.4982585 115.865214 55.4982585 125.159 55.4725071 126.680106 60.7561238 126.680106 64.137308L126.680106 64.9372963C106.426092 64.9074153 93.6342179 71.914663 93.6342179 86.1898294 93.6342179 94.9126917 100.148635 103.082146 111.47117 103.082146 118.44353 103.082146 124.271004 100.303929 127.765143 95.8499391L128.105577 95.8499391C128.105577 95.8499391 130.421049 105.520009 143.167171 101.820336 142.500218 97.7982864 142.283186 93.5056061 142.283186 88.3432146L142.283186 68.4399486 142.283186 68.4399486z"/>
    <polyline fill="#007DC6" points="167.507 86.011 167.507 27.344 152.373 27.344 152.373 101.823 167.507 101.823 167.507 86.011"/>
    <path fill="#007DC6" d="M365.473454 27.3439119L365.473454 82.285604C365.473454 89.8639946 366.902966 95.1677749 369.951102 98.4136436 372.620982 101.251623 377.009041 103.088462 382.271151 103.088462 386.746824 103.088462 391.146852 102.234785 393.223419 101.464435L393.028291 89.6470527C391.483306 90.0250612 389.709351 90.3297031 387.280411 90.3297031 382.12384 90.3297031 380.399677 87.027959 380.399677 80.2276926L380.399677 59.2059489 393.577827 59.2059489 393.577827 44.9545905 380.399677 44.9545905 380.399677 27.3439121 365.473484 27.3439121M326.412893 45.8719169L326.412893 101.822522 342.023993 101.822522 342.023993 73.1745298C342.023993 71.6262982 342.117562 70.2767884 342.362452 69.0429161 343.517211 63.0387512 348.108357 59.2057059 354.7024 59.2057059 356.510198 59.2057059 357.804308 59.402727 359.205931 59.6016917L359.205931 44.9543473C358.029269 44.7194281 357.230893 44.610107 355.767539 44.610107 349.942009 44.610107 343.314093 48.3673563 340.53275 56.427489L340.110656 56.427489 340.110656 45.8719169 326.412862 45.8719169M178.102518 45.8719169L178.102518 101.822522 193.311423 101.822522 193.311423 69.0132779C193.311423 67.4728202 193.492606 65.8449057 194.026163 64.433933 195.28643 61.1302454 198.362455 57.2614886 203.270187 57.2614886 209.410298 57.2614886 212.277281 62.4476877 212.277281 69.932548L212.277281 101.820336 227.474247 101.820336 227.474247 68.6109758C227.474247 67.1421844 227.675329 65.3709374 228.109362 64.0753595 229.35769 60.3159239 232.670645 57.2590594 237.233934 57.2590594 243.455674 57.2590594 246.442109 62.3539146 246.442109 71.1642339L246.442109 101.81815 261.64904 101.81815 261.64904 68.8636293C261.64904 51.4856835 252.821125 44.6059772 242.854401 44.6059772 238.444439 44.6059772 234.960264 45.7106075 231.808564 47.6390341 229.162592 49.2688921 226.789369 51.5775136 224.718757 54.6125139L224.493765 54.6125139C222.090679 48.5823548 216.436368 44.6062202 209.067829 44.6062202 199.600818 44.6062202 195.346157 49.402507 192.765866 53.4702285L192.5389 53.4702285 192.5389 45.8680302 178.102457 45.8680302"/>
  </g>
</svg>
